<?xml version="1.0" standalone="no"?>
<!DOCTYPE svg PUBLIC "-//W3C//DTD SVG 20010904//EN"
 "http://www.w3.org/TR/2001/REC-SVG-20010904/DTD/svg10.dtd">
<svg version="1.0" xmlns="http://www.w3.org/2000/svg"
 width="16.000000pt" height="16.000000pt" viewBox="0 0 16.000000 16.000000"
 preserveAspectRatio="xMidYMid meet">
<metadata>
Created by potrace 1.11, written by Peter Selinger 2001-2013
</metadata>
<g transform="translate(0.000000,16.000000) scale(0.002286,-0.002286)"
fill="#000000" stroke="none">
<path d="M3588 5665 c-1 -1 -61 -5 -133 -9 -71 -3 -141 -8 -155 -11 -14 -3
-50 -7 -81 -10 -131 -12 -401 -84 -584 -157 -128 -51 -332 -155 -432 -220
-621 -404 -989 -1020 -1049 -1754 l-5 -71 739 0 739 0 23 66 c95 278 294 518
527 634 128 64 287 96 453 91 137 -4 158 -7 275 -45 177 -56 335 -175 463
-347 63 -85 148 -250 177 -343 l18 -56 739 0 738 -1 -5 62 c-8 94 -14 131 -41
261 -160 785 -699 1413 -1480 1723 -135 54 -296 103 -419 128 -11 2 -31 6 -45
9 -46 10 -75 15 -115 20 -22 3 -56 7 -75 10 -19 3 -82 8 -140 11 -58 3 -110 7
-117 9 -6 2 -13 2 -15 0z"/>
<path d="M3475 3875 c-355 -74 -577 -427 -483 -770 33 -119 75 -192 163 -280
124 -125 272 -187 445 -186 288 0 547 212 606 495 15 76 16 205 0 264 -3 12
-8 31 -11 43 -15 71 -92 196 -162 265 -81 80 -209 151 -305 169 -67 12 -195
12 -253 0z"/>
<path d="M1725 3073 c4 -10 22 -59 40 -110 63 -171 208 -445 307 -576 18 -25
42 -57 52 -72 31 -42 50 -64 143 -165 192 -209 423 -374 673 -483 94 -41 294
-102 365 -112 164 -24 216 -27 354 -22 170 6 193 9 326 37 363 78 687 252 945
510 111 110 134 137 208 239 82 115 136 210 205 361 41 90 127 363 127 404 0
3 -204 6 -453 6 l-452 0 -23 -62 c-90 -243 -213 -415 -387 -545 -101 -75 -256
-143 -359 -157 -27 -4 -54 -10 -59 -13 -21 -13 -256 -4 -337 12 -346 70 -612
319 -750 703 l-23 62 -454 0 c-429 0 -455 -1 -448 -17z"/>
</g>
</svg>
