<?xml version="1.0" encoding="utf-8"?>
<!-- Generator: Adobe Illustrator 17.0.0, SVG Export Plug-In . SVG Version: 6.00 Build 0)  -->
<!DOCTYPE svg PUBLIC "-//W3C//DTD SVG 1.1//EN" "http://www.w3.org/Graphics/SVG/1.1/DTD/svg11.dtd">
<svg version="1.1" id="Layer_1" xmlns="http://www.w3.org/2000/svg" xmlns:xlink="http://www.w3.org/1999/xlink" x="0px" y="0px"
	 width="960px" height="560px" viewBox="0 0 960 560" style="enable-background:new 0 0 960 560;" xml:space="preserve">
<style type="text/css">
	.st0{fill:#E98052;}
</style>
<g>
	<path class="st0" d="M553,51.8c-70.5,0-127.7,57.2-127.7,127.7c0,12.6,1.8,24.7,5.2,36.2h50.6c-5.5-10.9-8.6-23.2-8.6-36.2
		c0-44.4,36-80.5,80.5-80.5c44.4,0,80.5,36,80.5,80.5c0,44.4-36,80.5-80.5,80.5h-99.2h-44.1h-9.3c-30.5,0-55.2-24.7-55.2-55.2
		c0-30.5,24.7-55.2,55.2-55.2c2-26.7,18.6-48.2,18.6-48.2h-18.6c-56.8,0-102.9,46.1-102.9,102.9c0,56.8,46.1,102.9,102.9,102.9H553
		c23.4,0,45.4-6.3,64.2-17.3c38-22.1,63.5-63.3,63.5-110.4C680.7,109,623.5,51.8,553,51.8z"/>
</g>
<g>
	<path class="st0" d="M122.6,450.4h-0.5C114.6,462.2,100.9,467,87,467c-20.7,0-39.4-11.8-39.4-34.2c0-38.3,46.5-38.9,74.9-38.9
		c0-12.1-10-19.8-21.9-19.8c-11.2,0-20.5,5-27.8,13.2l-18.2-18.7c12.5-11.8,30.7-17.8,48.7-17.8c39.9,0,50.6,20.3,50.6,57.2v56.3
		h-31.4V450.4z M114.1,415.8c-10.5,0-33.7,0.9-33.7,15.9c0,8.2,8.7,12.1,16.2,12.1c13.4,0,26-7.1,26-20.7v-7.3H114.1z"/>
	<path class="st0" d="M169.7,353.6h32.8v15h0.5c4.6-8.7,15.7-17.8,32.3-17.8c34.6,0,41,22.8,41,52.4v61h-34.2v-54.2
		c0-12.8-0.2-29.2-17.8-29.2c-17.8,0-20.5,13.9-20.5,28.2v55.1h-34.2V353.6z"/>
	<path class="st0" d="M350.7,482.3c-9.1,23.5-14.4,36.7-46.9,36.7c-8.7,0-17.3-1.4-25.5-4.1l4.6-28c5.2,2.3,10.2,3.4,15.9,3.4
		c15.5,0,18-6.6,22.8-18.7l2.5-6.4l-48.5-111.6h36.9l28.5,73.1h0.5l24.4-73.1h35.1L350.7,482.3z"/>
	<path class="st0" d="M405.7,353.6h32.8v15h0.5c4.6-8.7,15.7-17.8,32.3-17.8c34.6,0,41,22.8,41,52.4v61h-34.2v-54.2
		c0-12.8-0.2-29.2-17.8-29.2c-17.8,0-20.5,13.9-20.5,28.2v55.1h-34.2V353.6z"/>
	<path class="st0" d="M529.1,353.6h34.2v110.7h-34.2V353.6z"/>
	<path class="st0" d="M580.8,353.6h32.8v15h0.5c4.6-8.7,15.7-17.8,32.3-17.8c34.6,0,41,22.8,41,52.4v61h-34.2v-54.2
		c0-12.8-0.2-29.2-17.8-29.2c-17.8,0-20.5,13.9-20.5,28.2v55.1h-34.2V353.6z"/>
	<path class="st0" d="M807.2,445.1C796.3,459,778.3,467,760.5,467c-34.2,0-61.5-22.8-61.5-58.1c0-35.3,27.3-58.1,61.5-58.1
		c31.9,0,51.9,22.8,51.9,58.1v10.7h-79.3c2.7,13,12.5,21.4,25.7,21.4c11.2,0,18.7-5.7,24.4-13.4L807.2,445.1z M778.3,396.4
		c0.2-11.4-8.7-21-20.9-21c-15,0-23.2,10.2-24.1,21H778.3z"/>
	<path class="st0" d="M885.9,386.2c-5-6.1-11.6-9.3-19.8-9.3c-5.7,0-12.5,2.5-12.5,9.1c0,16.4,57.6,2.5,57.6,44.6
		c0,28.2-27.3,36.4-51,36.4c-15.5,0-32.6-3.9-43.5-15l20.7-23c6.4,7.7,13.9,12.1,24.1,12.1c7.7,0,15.5-2,15.5-8
		c0-17.8-57.6-2.7-57.6-44.9c0-26,23.2-37.3,46.5-37.3c14.6,0,30.7,3.6,41,14.6L885.9,386.2z"/>
</g>
</svg>
