<?xml version="1.0" encoding="UTF-8" standalone="no"?>
<svg
   xmlns:dc="http://purl.org/dc/elements/1.1/"
   xmlns:cc="http://creativecommons.org/ns#"
   xmlns:rdf="http://www.w3.org/1999/02/22-rdf-syntax-ns#"
   xmlns:svg="http://www.w3.org/2000/svg"
   xmlns="http://www.w3.org/2000/svg"
   viewBox="0 0 230.92 180.32001"
   height="180.32001"
   width="230.92"
   xml:space="preserve"
   id="svg2"
   version="1.1"><metadata
     id="metadata8"><rdf:RDF><cc:Work
         rdf:about=""><dc:format>image/svg+xml</dc:format><dc:type
           rdf:resource="http://purl.org/dc/dcmitype/StillImage" /></cc:Work></rdf:RDF></metadata><defs
     id="defs6"><clipPath
       id="clipPath18"
       clipPathUnits="userSpaceOnUse"><path
         id="path16"
         d="M 0,135.24 H 173.19 V 0 H 0 Z" /></clipPath></defs><g
     transform="matrix(1.3333333,0,0,-1.3333333,0,180.32)"
     id="g10"><g
       id="g12"><g
         clip-path="url(#clipPath18)"
         id="g14"><g
           transform="translate(8.1381,35.3629)"
           id="g20"><path
             id="path22"
             style="fill:#61a63a;fill-opacity:1;fill-rule:nonzero;stroke:none"
             d="m 0,0 h 4.692 v -18.504 c 0,-2.973 -0.099,-3.569 -0.331,-4.493 -0.66,-2.808 -3.27,-4.593 -5.352,-5.387 l -2.147,2.381 c 1.188,0.726 2.247,1.849 2.676,2.775 0.363,0.825 0.462,1.751 0.462,4.229 z" /></g><g
           transform="translate(15.2445,35.2968)"
           id="g24"><path
             id="path26"
             style="fill:#61a63a;fill-opacity:1;fill-rule:nonzero;stroke:none"
             d="M 0,0 H 12.457 L 11.929,-3.734 H 4.626 v -5.253 h 5.848 v -3.767 H 4.626 V -22.898 H 0 Z" /></g><g
           transform="translate(26.6462,28.6557)"
           id="g28"><path
             id="path30"
             style="fill:#61a63a;fill-opacity:1;fill-rule:nonzero;stroke:none"
             d="m 0,0 3.965,1.057 c 0.396,-0.694 0.628,-1.455 0.694,-2.412 0.627,0.858 1.685,1.751 2.51,2.147 0.364,0.166 0.959,0.265 1.455,0.265 0.66,0 0.957,-0.066 1.652,-0.364 L 9.053,-3.206 c -0.429,0.231 -0.792,0.33 -1.289,0.33 -0.991,0 -1.882,-0.462 -2.709,-1.419 V -16.257 H 0.627 v 11.3 C 0.627,-2.677 0.363,-0.959 0,0" /></g><g
           transform="translate(43.8967,26.376)"
           id="g32"><path
             id="path34"
             style="fill:#61a63a;fill-opacity:1;fill-rule:nonzero;stroke:none"
             d="m 0,0 c -1.057,0 -1.917,-0.662 -2.28,-1.718 -0.297,-0.893 -0.462,-2.082 -0.462,-3.767 0,-1.95 0.198,-3.404 0.561,-4.263 0.397,-0.924 1.389,-1.388 2.247,-1.388 1.917,0 2.742,1.718 2.742,5.717 0,2.279 -0.297,3.767 -0.891,4.526 C 1.487,-0.332 0.792,0 0,0 m -0.066,3.27 c 2.412,0 4.295,-0.825 5.75,-2.544 1.353,-1.586 1.949,-3.436 1.949,-6.178 0,-2.908 -0.662,-4.89 -2.114,-6.543 -1.29,-1.454 -2.975,-2.345 -5.585,-2.345 -4.593,0 -7.6,3.435 -7.6,8.755 0,5.319 3.04,8.855 7.6,8.855" /></g><g
           transform="translate(59.5938,26.376)"
           id="g36"><path
             id="path38"
             style="fill:#61a63a;fill-opacity:1;fill-rule:nonzero;stroke:none"
             d="m 0,0 c -1.685,0 -2.643,-0.926 -2.643,-2.512 0,-1.717 1.057,-2.412 2.61,-2.412 1.751,0 2.709,0.86 2.709,2.412 C 2.676,-0.926 1.685,0 0,0 M 8.657,3.898 10.507,1.09 C 9.55,0.198 8.624,-0.165 7.402,-0.165 c -0.431,0 -0.596,0.033 -1.157,0.099 0.66,-0.794 0.99,-1.652 0.99,-2.777 0,-2.907 -2.642,-5.021 -6.244,-5.021 -0.199,0 -0.331,0 -0.661,0.033 -1.122,-0.529 -1.751,-0.926 -1.751,-1.389 0,-0.231 0.264,-0.396 0.728,-0.396 l 2.378,-0.033 c 2.577,-0.033 3.933,-0.429 5.121,-1.52 0.992,-0.925 1.455,-2.082 1.455,-3.601 0,-1.421 -0.43,-2.512 -1.356,-3.502 -1.486,-1.587 -4.031,-2.181 -6.674,-2.181 -2.412,0 -4.89,0.396 -6.41,1.817 -0.924,0.859 -1.388,1.851 -1.388,3.006 0,0.926 0.232,1.389 0.398,1.719 h 4.097 c -0.134,-0.363 -0.2,-0.495 -0.2,-1.09 0,-1.355 1.124,-2.081 3.173,-2.081 1.256,0 2.214,0.165 2.808,0.561 0.629,0.396 1.058,1.057 1.058,1.718 0,0.661 -0.33,1.255 -0.794,1.519 -0.462,0.231 -1.089,0.431 -2.313,0.497 -0.231,0 -0.858,0.033 -1.883,0.033 -1.983,0.033 -3.27,0.231 -4.063,0.528 -0.398,0.165 -0.728,0.463 -0.959,0.826 -0.198,0.396 -0.33,0.86 -0.33,1.388 0,0.627 0.165,1.156 0.528,1.553 0.495,0.562 1.587,1.057 2.577,1.288 -2.445,0.629 -3.633,2.181 -3.633,4.692 0,3.47 2.808,5.716 7.136,5.716 0.958,0 1.818,-0.099 3.039,-0.429 1.223,-0.297 1.521,-0.363 2.082,-0.363 1.223,0 2.479,0.528 3.503,1.453" /></g><g
           transform="translate(80.8769,22.3778)"
           id="g40"><path
             id="path42"
             style="fill:#61a63a;fill-opacity:1;fill-rule:nonzero;stroke:none"
             d="m 0,0 v -6.212 h 3.008 c 0.957,0 1.618,0.165 2.147,0.528 0.694,0.529 1.189,1.587 1.189,2.676 0,1.323 -0.693,2.445 -1.685,2.81 C 4.097,-0.033 3.932,0 2.876,0 Z M -0.066,9.086 V 3.8 h 2.743 c 1.09,0 1.585,0.066 1.982,0.297 0.628,0.33 1.19,1.453 1.19,2.379 0,0.958 -0.529,1.917 -1.323,2.313 C 4.13,8.954 3.635,9.086 2.61,9.086 Z m -4.56,3.932 H 3.14 c 2.808,0 4.262,-0.429 5.649,-1.652 1.289,-1.123 1.883,-2.445 1.883,-4.098 C 10.672,5.715 10.111,4.394 9.12,3.402 8.459,2.775 8.062,2.544 7.006,2.214 c 3.072,-0.926 4.559,-2.777 4.559,-5.783 0,-3.171 -1.982,-6.08 -6.013,-6.344 C 4.825,-9.946 3.866,-9.979 2.61,-9.979 h -7.236 z" /></g><g
           transform="translate(94.3302,29.0189)"
           id="g44"><path
             id="path46"
             style="fill:#61a63a;fill-opacity:1;fill-rule:nonzero;stroke:none"
             d="M 0,0 4.427,0.693 V -16.62 l -4.427,0 z m 2.28,7.698 c 1.487,0 2.676,-1.222 2.676,-2.742 0,-1.521 -1.222,-2.742 -2.742,-2.742 -1.488,0 -2.709,1.221 -2.709,2.742 0,1.52 1.254,2.742 2.775,2.742" /></g><g
           transform="translate(100.9398,28.6227)"
           id="g48"><path
             id="path50"
             style="fill:#61a63a;fill-opacity:1;fill-rule:nonzero;stroke:none"
             d="m 0,0 3.932,1.123 c 0.396,-0.694 0.627,-1.42 0.627,-2.115 1.024,0.728 1.222,0.86 1.95,1.256 0.892,0.462 2.049,0.727 3.039,0.727 1.884,0 3.536,-0.991 4.064,-2.445 0.232,-0.628 0.331,-1.356 0.331,-2.412 V -16.224 H 9.581 v 11.003 c 0,1.916 -0.33,2.478 -1.486,2.478 -0.893,0 -2.048,-0.595 -3.073,-1.519 V -16.224 H 0.594 V -3.965 C 0.594,-2.512 0.396,-1.124 0,0" /></g><g
           transform="translate(126.2527,29.3491)"
           id="g52"><path
             id="path54"
             style="fill:#61a63a;fill-opacity:1;fill-rule:nonzero;stroke:none"
             d="m 0,0 -1.124,-2.94 h -2.841 v -8.624 c 0,-2.148 0.396,-2.71 1.916,-2.71 0.397,0 0.793,0.099 1.587,0.33 l 0.561,-2.643 c -1.289,-0.528 -2.445,-0.759 -3.602,-0.759 -2.247,0 -4.064,0.99 -4.559,2.477 -0.265,0.727 -0.298,1.057 -0.298,2.61 v 9.319 h -1.685 v 2.874 h 1.685 c 0,1.652 0,2.775 0.166,4.031 l 4.493,1.123 C -3.866,3.536 -3.965,1.718 -3.965,0 Z" /></g><g
           transform="translate(127.3453,28.6557)"
           id="g56"><path
             id="path58"
             style="fill:#61a63a;fill-opacity:1;fill-rule:nonzero;stroke:none"
             d="m 0,0 3.965,1.057 c 0.396,-0.694 0.627,-1.455 0.694,-2.412 0.627,0.858 1.685,1.751 2.51,2.147 0.364,0.166 0.959,0.265 1.455,0.265 0.66,0 0.957,-0.066 1.652,-0.364 L 9.053,-3.206 c -0.429,0.231 -0.792,0.33 -1.289,0.33 -0.991,0 -1.882,-0.462 -2.709,-1.419 V -16.257 H 0.627 v 11.3 C 0.627,-2.677 0.363,-0.959 0,0" /></g><g
           transform="translate(146.3141,19.7994)"
           id="g60"><path
             id="path62"
             style="fill:#61a63a;fill-opacity:1;fill-rule:nonzero;stroke:none"
             d="m 0,0 h -0.198 c -3.074,0 -4.13,-0.561 -4.13,-2.577 0,-1.321 0.825,-2.214 1.949,-2.214 0.826,0 1.651,0.43 2.313,1.158 z m -8.69,7.501 c 1.09,0.693 1.552,0.925 2.742,1.388 1.653,0.694 3.072,0.991 4.626,0.991 2.841,0 4.79,-1.057 5.452,-2.94 C 4.361,6.245 4.427,5.717 4.427,3.899 L 4.328,-1.783 V -2.08 c 0,-1.818 0.298,-2.512 1.587,-3.47 L 3.567,-8.259 C 2.544,-7.83 1.619,-7.07 1.189,-6.21 0.561,-6.806 0.495,-6.872 0.165,-7.103 c -0.827,-0.595 -2.016,-0.925 -3.404,-0.925 -3.767,0 -5.814,1.917 -5.814,5.286 0,3.965 2.742,5.816 8.127,5.816 0.332,0 0.53,0 0.992,-0.033 v 0.693 c 0,1.884 -0.363,2.511 -1.983,2.511 -1.421,0 -3.073,-0.693 -4.889,-1.915 z" /></g><g
           transform="translate(151.4379,29.0189)"
           id="g64"><path
             id="path66"
             style="fill:#61a63a;fill-opacity:1;fill-rule:nonzero;stroke:none"
             d="m 0,0 4.526,0.528 2.942,-9.847 c 0.297,-1.023 0.892,-3.501 0.892,-3.501 0,0 0.33,1.884 0.528,2.709 0.264,1.058 0.33,1.223 0.662,2.346 l 2.544,8.029 h 4.658 l -6.146,-17.148 c -1.157,-3.272 -2.015,-4.692 -3.237,-5.585 -1.124,-0.825 -2.578,-1.354 -4.097,-1.552 l -1.521,2.907 c 0.958,0.265 2.082,0.661 2.742,1.123 0.496,0.365 0.893,0.827 1.257,1.388 0.429,0.694 0.561,0.992 0.957,1.983 H 5.585 c -0.265,0.792 -0.398,1.124 -0.695,1.983 -0.331,1.023 -0.859,2.708 -0.892,2.775 z" /></g><path
           id="path68"
           style="fill:#61a63a;fill-opacity:1;fill-rule:nonzero;stroke:none"
           d="M 116.755,53.046 H 56.434 v 5.379 h 60.321 z" /><g
           transform="translate(99.5261,104.4832)"
           id="g70"><path
             id="path72"
             style="fill:#61a63a;fill-opacity:1;fill-rule:nonzero;stroke:none"
             d="m 0,0 v -5.379 h 7.986 l -18.159,-18.158 v 38.931 l 5.623,-5.622 3.803,3.803 -12.184,12.184 -12.182,-12.184 3.803,-3.803 5.759,5.76 V -23.537 L -33.71,-5.379 h 7.849 V 0 h -17.231 v -17.231 h 5.379 v 8.249 L -12.862,-33.833 11.85,-9.12 v -8.111 h 5.379 V 0 Z" /></g></g></g></g></svg>