<svg xmlns="http://www.w3.org/2000/svg" xmlns:xlink="http://www.w3.org/1999/xlink" xmlns:a="http://ns.adobe.com/AdobeSVGViewerExtensions/3.0/" version="1.1" x="0px" y="0px" width="200px" height="200px" viewBox="-8.253 -9.791 200 200" enable-background="new -8.253 -9.791 200 200" xml:space="preserve">
<defs>
</defs>
<path fill="#FFFFFF" d="M92.114 180.2c0 0 147.129-44.092 68.686-178.93c0 0-31.369 18.228-68.686-0.851l-0.225-0.047 c-37.312 19.08-68.688 0.852-68.688 0.852c-78.438 134.8 68.7 178.9 68.7 178.929L92.114 180.2z"/>
<linearGradient id="SVGID_1_" gradientUnits="userSpaceOnUse" x1="0.4" y1="32.7" x2="183.6" y2="32.7">
	<stop offset="0" style="stop-color:#2478C7"/>
	<stop offset="0.2574" style="stop-color:#246BB8"/>
	<stop offset="0.7517" style="stop-color:#254B90"/>
	<stop offset="1" style="stop-color:#26387A"/>
</linearGradient>
<path fill="url(#SVGID_1_)" d="M160.94 0.901c0 0-31.434 18.265-68.827-0.854L91.888 0C54.5 19.1 23.1 0.9 23.1 0.9 C8.859 25.3 2.1 46.7 0.4 65.445h183.162C181.927 46.7 175.1 25.3 160.9 0.901z"/>
<linearGradient id="SVGID_2_" gradientUnits="userSpaceOnUse" x1="0" y1="126" x2="184" y2="126">
	<stop offset="0" style="stop-color:#57BF42"/>
	<stop offset="0.3181" style="stop-color:#4BAE3C"/>
	<stop offset="0.9482" style="stop-color:#2C812C"/>
	<stop offset="1" style="stop-color:#297D2B"/>
</linearGradient>
<path fill="url(#SVGID_2_)" d="M183.966 71.808H0.037c-2.152 80.2 91.9 108.3 91.9 108.339l0.226 0 C92.114 180.2 186.2 152 184 71.808z"/>
<path fill="#FFFFFF" d="M44.266 52.743c-1.141 0.57-3.711 1.223-7.055 1.223c-9.502 0-14.395-5.955-14.395-13.785 c0-9.38 6.688-14.599 15.005-14.599c3.225 0 5.7 0.7 6.8 1.222l-1.265 4.934c-1.265-0.527-3.017-1.019-5.22-1.019 c-4.937 0-8.767 2.977-8.767 9.095c0 5.5 3.3 9 8.8 8.972c1.875 0 3.955-0.408 5.18-0.896L44.266 52.743z"/>
<path fill="#FFFFFF" d="M51.393 26.03h6.242v22.267H68.56v5.22H51.393V26.03z"/>
<path fill="#FFFFFF" d="M98.897 39.491c0 9.01-5.467 14.476-13.501 14.476c-8.157 0-12.926-6.159-12.926-13.987 c0-8.24 5.26-14.396 13.377-14.396C94.288 25.6 98.9 31.9 98.9 39.491z M79.036 39.854c0 5.4 2.5 9.2 6.7 9.2 c4.198 0 6.605-3.997 6.605-9.338c0-4.935-2.362-9.177-6.645-9.177C81.481 30.5 79 34.5 79 39.854z"/>
<path fill="#FFFFFF" d="M112.222 26.03v15.824c0 4.7 1.8 7.1 5 7.135c3.266 0 5.061-2.283 5.061-7.135V26.03h6.199v15.414 c0 8.485-4.283 12.522-11.463 12.522c-6.932 0-11.01-3.833-11.01-12.601V26.03H112.222z"/>
<path fill="#FFFFFF" d="M136.884 26.397c2.281-0.368 5.26-0.571 8.4-0.571c5.219 0 8.6 0.9 11.3 2.9 c2.859 2.1 4.7 5.5 4.7 10.36c0 5.259-1.916 8.889-4.564 11.132c-2.898 2.406-7.301 3.547-12.682 3.5 c-3.227 0-5.508-0.204-7.057-0.406V26.397z M143.12 48.828c0.531 0.1 1.4 0.1 2.2 0.121c5.627 0 9.297-3.059 9.297-9.623 c0.041-5.711-3.303-8.729-8.646-8.729c-1.385 0-2.283 0.123-2.814 0.247V48.828z"/>
<path fill="#FFFFFF" d="M82.541 95.696c-1.617 0-3.329 0-5.613 0.189c-12.844 1.047-18.553 7.611-20.169 14.842h0.285 c3.043-3.142 7.326-4.947 13.129-4.947c10.371 0 19.1 7.3 19.1 20.17c0 12.275-9.417 22.357-22.834 22.4 c-16.458 0-24.546-12.271-24.546-27.02c0-11.605 4.282-21.312 10.941-27.496c6.185-5.614 14.178-8.657 23.881-9.132 c2.665-0.191 4.377-0.191 5.803-0.095V95.696z M66.367 137.653c5.042 0 8.278-4.662 8.278-10.941c0-5.709-3.045-10.656-9.23-10.656 c-3.899 0-7.135 2.377-8.562 5.518c-0.38 0.762-0.57 1.904-0.57 3.615c0.285 6.6 3.4 12.5 10 12.465H66.367z"/>
<path fill="#FFFFFF" d="M135.335 95.696c-1.617 0-3.33 0-5.613 0.189c-12.844 1.047-18.553 7.611-20.17 14.842h0.285 c3.043-3.142 7.326-4.947 13.131-4.947c10.369 0 19.1 7.3 19.1 20.17c0 12.275-9.416 22.357-22.832 22.4 c-16.459 0-24.548-12.271-24.548-27.02c0-11.605 4.281-21.312 10.94-27.496c6.186-5.614 14.178-8.657 23.881-9.132 c2.666-0.191 4.377-0.191 5.805-0.095V95.696z M119.159 137.653c5.043 0 8.279-4.662 8.279-10.941c0-5.709-3.045-10.656-9.23-10.656 c-3.898 0-7.135 2.377-8.561 5.518c-0.381 0.762-0.57 1.904-0.57 3.615c0.285 6.6 3.4 12.5 10 12.465H119.159z"/>
</svg>
