<svg id="Layer_1" data-name="Layer 1" xmlns="http://www.w3.org/2000/svg" xmlns:xlink="http://www.w3.org/1999/xlink" viewBox="0 0 320.92 42.53"><defs><style>.cls-1{fill:#3a3a3a;}.cls-2{fill:url(#linear-gradient);}</style><linearGradient id="linear-gradient" x1="191.49" y1="91.39" x2="185.48" y2="133.43" gradientUnits="userSpaceOnUse"><stop offset="0" stop-color="#41b5e8"/><stop offset="0.13" stop-color="#10b1e7"/><stop offset="1" stop-color="#3b5ba9"/></linearGradient></defs><title>CloudFoundaryCorp_cmyk</title><path class="cls-1" d="M153.51,113.79V90.35h16.86v4.26H157.93V101H169.7v4.09H157.93v8.68h-4.43Z" transform="translate(-19.7 -89.42)"/><path class="cls-1" d="M228.69,90.35V103.8c0,6.94-4.26,10.49-10.16,10.49-5.63,0-10.43-3.42-10.43-10.49V90.35h4.39V103.8c0,4.22,2.41,6.47,6.07,6.47s5.73-2.45,5.73-6.47V90.35h4.39Z" transform="translate(-19.7 -89.42)"/><path class="cls-1" d="M252.65,90.28h4.43v23.5h-2.75v0L242,98v15.82h-4.43V90.32h3.59l11.5,14.55V90.28Z" transform="translate(-19.7 -89.42)"/><path class="cls-1" d="M286,101.85c0.1,5.93-3.52,11.94-11.73,11.94h-9.22V90.32h9.22C282.34,90.32,285.93,96.05,286,101.85Zm-16.56,7.68h4.83c5.33,0,7.44-3.89,7.34-7.71-0.1-3.65-2.25-7.31-7.34-7.31h-4.83v15Z" transform="translate(-19.7 -89.42)"/><path class="cls-1" d="M314,113.79h-5.26l-6.84-7.85h-4.26v7.85h-4.43V90.28c3.72,0,7.44,0,11.16,0,5.53,0,8.45,3.72,8.45,7.78,0,3.22-1.47,6.47-5.93,7.38l7.11,8v0.3ZM297.64,94.44V102h6.74a3.76,3.76,0,1,0,0-7.51h-6.74Z" transform="translate(-19.7 -89.42)"/><path class="cls-1" d="M329.06,100l6.24-9.69h5.33v0.2l-9.35,13.58v9.69h-4.43V104.1l-9-13.58v-0.2h5.26Z" transform="translate(-19.7 -89.42)"/><path class="cls-1" d="M40.45,110.59a12.16,12.16,0,0,1-8.6,3.54c-8,0-12.11-5.57-12.15-11.94S23.75,90,31.85,90a12.16,12.16,0,0,1,8.6,3.54l-1.25,1.08a10.34,10.34,0,0,0-7.36-3c-6.88,0-10.43,4.86-10.39,10.53S25,112.44,31.85,112.44a10.56,10.56,0,0,0,7.39-3Z" transform="translate(-19.7 -89.42)"/><path class="cls-1" d="M48.06,90.24v21.9H61.35v1.72H46.23V90.24h1.82Z" transform="translate(-19.7 -89.42)"/><path class="cls-1" d="M90.18,102.08c0,6.21-4,12.18-11.91,12.18s-11.91-6-11.91-12.25S70.3,89.87,78.27,89.87,90.21,95.71,90.18,102.08Zm-22,0c0,5.33,3.41,10.53,10.12,10.53s10.16-5.2,10.16-10.53S85,91.56,78.27,91.56,68.11,96.48,68.14,102Z" transform="translate(-19.7 -89.42)"/><path class="cls-1" d="M115.15,90.24v14.68c0,12.35-18.09,12.38-18.09,0V90.24h1.79v14.68c0,10.16,14.51,10.12,14.51,0V90.24h1.79Z" transform="translate(-19.7 -89.42)"/><path class="cls-1" d="M142.5,101.78c0.13,6-3.71,12.08-12,12.08h-8V90.24h8C138.51,90.24,142.36,96,142.5,101.78ZM124.34,92V112.1h6.18c7,0,10.26-5.26,10.16-10.33S137.33,92,130.52,92h-6.18Z" transform="translate(-19.7 -89.42)"/><path class="cls-1" d="M185,114.73s0.74-2.81-2.48-6.43l-0.11-.11a8.92,8.92,0,0,1,6.84-14.68h0.21a8.92,8.92,0,0,1,6.84,14.68l-0.11.11a8.53,8.53,0,0,0-2.48,6.44,13,13,0,0,0-3.61-25.31h-1.48A13,13,0,0,0,185,114.73Z" transform="translate(-19.7 -89.42)"/><path class="cls-1" d="M201.9,125.1a4,4,0,0,1,.78-0.23,5.1,5.1,0,0,1,.9-0.11l0-.25a2.29,2.29,0,0,0-.15-0.54l-0.1-.28c0-.09-0.09-0.17-0.13-0.24l-0.13-.23a7.9,7.9,0,0,1-.93-0.21,7.3,7.3,0,0,1-.84-0.29,3.65,3.65,0,0,1-1.16-.71h0a0.85,0.85,0,0,1-.33-0.73,0.62,0.62,0,0,1,.15-0.32,1,1,0,0,1,.34-0.26l-0.28-.16-0.29-.16-0.35-.17c-0.24-.11-0.47-0.23-0.67-0.3l-0.32-.13a5.81,5.81,0,0,1-.73.05c-0.26,0-.53,0-0.79,0a7.7,7.7,0,0,1-1.48-.25,3.6,3.6,0,0,1-.6-0.21,2.64,2.64,0,0,1-.45-0.24,0.76,0.76,0,0,1-.4-0.53l-0.36-.06-1-.14c0,0.05,0,.1,0,0.18l-0.08.37a1.45,1.45,0,0,0,1,1.69c1.77,0.52,3.11,1.36,3.5,2.41,0.78,2.11-2.5,4.17-7.5,4.17s-8.28-2.06-7.5-4.17c0.38-1,1.66-1.85,3.37-2.37a1.53,1.53,0,0,0,1-1.78l-0.11-.5-0.67.08c-0.3,0-.58.09-0.8,0.12l-0.36.06a0.65,0.65,0,0,1-.34.53,3.06,3.06,0,0,1-.42.25,5.36,5.36,0,0,1-.58.22h0a6.13,6.13,0,0,1-.71.16,7.09,7.09,0,0,1-.77.1,7.68,7.68,0,0,1-1.55,0l-0.09,0-0.23.1-0.66.31c-0.24.12-.45,0.25-0.62,0.34l-0.21.12-0.07,0a0.87,0.87,0,0,1,.56.59,0.79,0.79,0,0,1-.25.75,3.29,3.29,0,0,1-.47.39,4.22,4.22,0,0,1-.67.36,7.35,7.35,0,0,1-1.77.55,1.18,1.18,0,0,0-.1.24l-0.19.54-0.08.55a0.93,0.93,0,0,0,0,.26,5,5,0,0,1,1.77.31,2.17,2.17,0,0,1,1.11.76,1.22,1.22,0,0,1,.1,1.13,2.69,2.69,0,0,1-1,1.28l0.08,0.07,0.25,0.18c0.22,0.15.49,0.36,0.81,0.55l0.94,0.52c0.13,0.07.26,0.12,0.34,0.16l0.13,0.06a8.37,8.37,0,0,1,2.43-.59,7.12,7.12,0,0,1,1.21,0,6.64,6.64,0,0,1,1.18.14h0a7.19,7.19,0,0,1,1.06.33,6,6,0,0,1,.89.5,2.94,2.94,0,0,1,1.15,1.45l0.7,0c0.42,0,1,0,1.55,0s1.12,0,1.54-.06l0.69-.07a2.12,2.12,0,0,1,.36-0.8,2.67,2.67,0,0,1,.29-0.34,3.7,3.7,0,0,1,.34-0.32,3.51,3.51,0,0,1,.84-0.51,4.73,4.73,0,0,1,1-.36,8.75,8.75,0,0,1,1.14-.18,10.47,10.47,0,0,1,1.2,0,8.51,8.51,0,0,1,2.46.52l0.43-.24A7.4,7.4,0,0,0,201,129c0.28-.2.57-0.4,0.74-0.56l0.28-.27a3.26,3.26,0,0,1-1.12-1.24,1.38,1.38,0,0,1-.13-0.58,0.84,0.84,0,0,1,.13-0.53A1.84,1.84,0,0,1,201.9,125.1Z" transform="translate(-19.7 -89.42)"/><path class="cls-2" d="M193.88,106.64a5.32,5.32,0,0,0,2.06-4.17c0-3.13-3-5.64-6.6-5.64s-6.57,2.52-6.6,5.64a5.32,5.32,0,0,0,2.06,4.17,9.36,9.36,0,0,1,3,6.77c0.08,3.17-.13,6.84-0.26,8.71-1.7.24-2.89,0.81-2.89,1.47,0,0.88,2.11,1.9,4.72,1.9s4.72-1,4.72-1.9c0-.66-1.19-1.23-2.89-1.47-0.13-1.87-.35-5.54-0.26-8.71A9.36,9.36,0,0,1,193.88,106.64Z" transform="translate(-19.7 -89.42)"/></svg>