<?xml version="1.0" encoding="utf-8"?>
<!-- Generator: Adobe Illustrator 15.0.0, SVG Export Plug-In . SVG Version: 6.00 Build 0)  -->
<!DOCTYPE svg PUBLIC "-//W3C//DTD SVG 1.1//EN" "http://www.w3.org/Graphics/SVG/1.1/DTD/svg11.dtd">
<svg version="1.1" id="Laag_1" xmlns="http://www.w3.org/2000/svg" xmlns:xlink="http://www.w3.org/1999/xlink" x="0px" y="0px"
	 width="800px" height="451px" viewBox="0 0 800 451" enable-background="new 0 0 800 451" xml:space="preserve">
<path fill="#05688A" d="M507.652,238.206H264.3c-40.329,0-73.139-32.81-73.139-73.139c0-40.329,32.81-73.139,73.139-73.139
	l27.859,0.148c5.509-45.953,44.731-81.688,92.145-81.688c51.172,0,92.805,41.633,92.805,92.807c0,6.11-4.953,11.063-11.063,11.063
	c-6.11,0-11.063-4.953-11.063-11.063c0-38.973-31.707-70.681-70.68-70.681c-38.975,0-70.681,31.708-70.681,70.681
	c0,2.945-1.174,5.768-3.262,7.843c-2.073,2.062-4.878,3.22-7.802,3.22c-0.019,0-0.039,0-0.059,0l-38.259-0.205
	c-28.07,0-50.954,22.885-50.954,51.013c0,28.129,22.884,51.013,51.012,51.013h243.352c18.979,0,34.42-15.439,34.42-34.418
	c0-18.979-15.44-34.418-34.42-34.418l-175.776,0.001c-10.279,0-18.642,8.363-18.642,18.643c0,10.28,8.363,18.644,18.642,18.644
	h105.591c6.11,0,11.063,4.953,11.063,11.063c0,6.109-4.953,11.063-11.063,11.063H331.876c-22.479,0-40.769-18.288-40.769-40.769
	s18.289-40.769,40.769-40.769l175.776,0c31.18,0,56.545,25.365,56.545,56.544S538.832,238.206,507.652,238.206z"/>
<g>
	<g>
		<path fill="#05688A" d="M93.813,339.376c-1.272-4.666-6.222-12.019-15.979-12.019c-9.756,0-17.535,7.777-17.535,21.918
			c0,12.726,6.647,22.06,17.817,22.06c10.747,0,14.848-8.204,16.969-13.858l14.564,7.636c-5.514,15.272-19.513,22.06-31.815,22.06
			c-19.656,0-35.068-15.13-35.068-37.474c0-21.635,15.555-37.472,35.634-37.472c17.817,0,26.867,11.878,30.544,20.079
			L93.813,339.376z"/>
		<path fill="#05688A" d="M131.59,285.218v99.832h-17.11v-99.832H131.59z"/>
		<path fill="#05688A" d="M175.972,387.172c-22.059,0-36.764-16.121-36.764-37.756s14.989-37.189,36.058-37.189
			c19.656,0,36.482,13.716,36.624,37.189C211.89,371.476,197.325,387.172,175.972,387.172z M175.125,327.497
			c-10.606,0-18.242,8.484-18.242,21.494c0,14.565,8.908,22.625,19.089,22.625c12.303,0,18.524-10.748,18.1-22.482
			C193.791,337.396,187.002,327.497,175.125,327.497z"/>
		<path fill="#05688A" d="M283.421,314.348v70.702h-16.968v-7.212c-2.969,2.828-9.897,8.908-22.907,8.908
			c-11.596,0-17.11-4.949-19.656-8.201c-4.808-6.08-4.808-12.726-4.808-23.331v-40.866h17.11v40.582c0,2.83,0,5.232,0.565,7.071
			c1.838,6.222,6.929,8.908,13.15,8.908c7.07,0,11.454-3.818,13.716-7.494c2.546-4.667,2.687-9.191,2.828-19.09v-29.978H283.421z"/>
		<path fill="#05688A" d="M357.742,285.218v99.832h-16.827v-6.787c-5.232,6.362-12.302,8.909-19.656,8.909
			c-16.827,0-31.392-12.587-31.392-35.918c0-21.068,11.878-39.027,32.099-39.027c6.929,0,13.574,1.979,18.949,7.918v-34.927H357.742
			z M336.955,334.426c-2.546-3.816-6.787-6.503-12.443-6.503c-11.454,0-16.969,10.321-16.969,21.493
			c0,1.273,0.141,22.483,16.685,22.483c8.768,0,16.687-6.506,16.544-21.776C340.631,345.598,340.066,339.093,336.955,334.426z"/>
		<path fill="#05688A" d="M431.413,370.061c-1.557,3.111-2.404,4.949-5.231,8.062c-2.263,2.403-8.202,8.624-21.777,8.624
			c-21.777,0-30.968-17.534-30.968-34.927c0-22.482,13.717-35.775,32.241-35.775c18.948,0,24.462,13.435,25.735,16.969l-7.778,1.838
			c-3.676-8.766-12.159-11.313-18.241-11.313c-13.008,0-22.907,10.041-22.907,27.857c0,10.464,3.817,27.998,22.2,27.998
			c6.93,0,13.857-2.688,18.102-11.312L431.413,370.061z"/>
		<path fill="#05688A" d="M463.593,386.746c-19.655,0-30.402-15.554-30.402-34.502c0-17.534,8.909-36.2,30.687-36.2
			c21.352,0,30.4,17.535,30.543,34.928C494.561,371.476,482.684,386.746,463.593,386.746z M464.019,323.114
			c-5.939,0-11.737,2.404-15.556,6.929c-5.798,6.788-6.363,16.828-6.363,22.342c0,19.231,9.898,27.009,21.493,27.009
			c14.848,0,21.777-11.737,21.918-27.433C485.511,348.143,485.794,323.114,464.019,323.114z"/>
		<path fill="#05688A" d="M553.994,385.05h-8.346v-34.927c0-13.15,0-16.969-2.544-20.645c-1.697-2.404-5.654-5.798-13.151-5.798
			c-7.634,0-12.159,2.971-15.694,7.636c-4.241,5.656-4.241,10.039-4.241,24.182v29.552h-8.344v-67.31h8.344v12.02
			c2.263-6.787,9.05-13.575,21.068-13.575c3.676,0,12.584,0.426,18.383,8.063c4.383,5.796,4.525,11.312,4.525,25.876V385.05z"/>
		<path fill="#05688A" d="M581.083,370.769c0,6.362,2.262,8.199,5.515,8.199c2.97,0,6.364-1.979,9.334-4.241v8.344
			c-3.393,2.262-6.648,3.253-10.747,3.253c-12.161,0-12.161-6.789-12.161-19.655V324.67h-14.14v-7.068h14.14v-28.706h8.06v28.706
			h14.849v7.068h-14.849V370.769z"/>
		<path fill="#05688A" d="M610.618,385.05h-8.201v-67.448h8.201v10.745c4.243-8.909,11.314-11.878,19.654-11.878
			c1.979,0,2.973,0.142,4.667,0.424v7.496c-2.546-0.426-2.827-0.426-5.09-0.426s-8.91,0.142-13.858,5.374
			c-5.231,5.798-5.231,12.726-5.373,26.584V385.05z"/>
		<path fill="#05688A" d="M662.979,386.746c-19.655,0-30.402-15.554-30.402-34.502c0-17.534,8.908-36.2,30.684-36.2
			c21.353,0,30.402,17.535,30.544,34.928C693.946,371.476,682.067,386.746,662.979,386.746z M663.402,323.114
			c-5.938,0-11.737,2.404-15.553,6.929c-5.8,6.788-6.364,16.828-6.364,22.342c0,19.231,9.898,27.009,21.494,27.009
			c14.847,0,21.775-11.737,21.918-27.433C684.897,348.143,685.178,323.114,663.402,323.114z"/>
		<path fill="#05688A" d="M712.593,385.05h-8.343v-99.832h8.343V385.05z"/>
	</g>
</g>
</svg>
