<?xml version="1.0" encoding="UTF-8"?>
<!DOCTYPE svg PUBLIC "-//W3C//DTD SVG 1.1//EN" "http://www.w3.org/Graphics/SVG/1.1/DTD/svg11.dtd">
<svg version="1.1" xmlns="http://www.w3.org/2000/svg" xmlns:xlink="http://www.w3.org/1999/xlink" x="0" y="0" width="250" height="250" viewBox="0, 0, 250, 250">
  <g id="Layer_1">
    <path d="M198.815,82.38 L190.159,77.385 L173.459,87.021 L153.547,98.508 L124.993,115.003 L76.541,87.021 L124.993,59.052 L153.547,75.534 L159.114,78.746 L175.814,69.096 L161.904,61.08 L124.993,39.766 L51.185,82.38 L51.185,91.662 L67.885,101.312 L88.082,112.975 L124.993,134.289 L182.115,101.312 L182.115,157.971 L153.547,174.453 L124.993,190.948 L96.439,174.453 L67.885,157.971 L67.885,118.066 L51.185,108.43 L51.185,167.607 L88.082,188.92 L124.993,210.234 L198.815,167.607 L198.815,82.38" fill="#00D7C5"/>
    <path d="M215.514,72.737 L215.514,113.254 L232.214,113.254 L232.214,63.101 L124.993,1.202 L17.786,63.101 L17.786,186.899 L71.383,217.848 L124.993,248.798 L232.214,186.899 L232.214,136.746 L215.514,136.746 L215.514,177.263 L170.261,203.395 L124.993,229.512 L34.486,177.263 L34.486,72.737 L124.993,20.488 L215.514,72.737" fill="#475667"/>
  </g>
</svg>
