<?xml version="1.0" encoding="utf-8"?>
<!-- Generator: Adobe Illustrator 19.1.0, SVG Export Plug-In . SVG Version: 6.00 Build 0)  -->
<svg version="1.1" id="Layer_1" xmlns="http://www.w3.org/2000/svg" xmlns:xlink="http://www.w3.org/1999/xlink" x="0px" y="0px"
	 viewBox="0 0 128 128" style="enable-background:new 0 0 128 128;" xml:space="preserve">
<path d="M126.5,71.8c-2.4-17.5-9.9-32.4-22.3-44.7c-0.3-0.3-0.6-0.7-1-1c2.1-2.7,0.3-0.2,2.3-2.8c0.4-1.6-0.3-3.6-2.4-5.3
	c-2.5-2.4-5.4-0.9-5.4-0.9c-1.8,2.3,0.3-0.5-1.5,1.8c-0.2,0.3-0.5,0.5-0.7,0.8C60.5-4.5,19.7,6.9,0,28.8c9.3-1.9,17.7-0.4,25.3,5.2
	C32.8,39.6,37,47.3,38,56.9c9.5-2.2,18.3-1,26.1,4.1c-1.1,1.4-5.5,6.6-6.5,7.9C47.8,81.3,37.9,93.7,28.1,106c-2.2,2.7-5,4.1-8.4,3.7
	c-3.5-0.4-6.1-2.4-7.5-5.7c-1.4-3.4-1-6.6,1.2-9.5c0.5-0.7,1.1-1.4,1.6-2.1l-4.6-9.6c-0.6,0.3-1.9,1.6-2.3,2.1C7,86.3,7.3,86,5.7,88
	c-1.9,2.4-3.2,5.2-3.9,8.3c-0.2,1.1-0.4,2.3-0.6,3.4c0,0.5,0,1,0,1.6c0.2,1.3,0.4,2.6,0.7,3.8c2,7.7,7,12.5,14.5,14.3
	c7.6,1.7,14.1-0.6,19.1-6.8c7.3-9,14.4-18.2,21.6-27.2c3.8-4.8,7.6-9.6,11.4-14.4c0.2-0.2,1.8-2,3-3.6c5.7,6.5,8.4,14.5,8.3,23.8
	c9.4-1.1,17.7,1.4,24.7,7.7c7,6.3,10.3,14.5,10.4,24.2c0.3-0.4,0.4-0.5,0.5-0.6c5.9-9.3,9.5-19.3,11-30.2c0.3-2.3,0.5-4.6,0.8-7
	c0-2.3,0-4.5,0-6.8C127,76.3,126.8,74,126.5,71.8z"/>
</svg>
