<?xml version="1.0"?>
<svg width="525" height="150" xmlns="http://www.w3.org/2000/svg" xmlns:svg="http://www.w3.org/2000/svg">
 <style type="text/css">.st0{fill:#44A8DE;}
	.st1{fill:#32B450;}
	.st2{fill:#ED265D;}</style>
 <g>
  <title>Layer 1</title>
  <g stroke="null" id="svg_1">
   <path stroke="null" id="svg_2" d="m233.794403,14.990753l-11.5,0c-2.700012,0 -4.900024,2.200012 -4.900024,4.899994c0,2.700012 2.200012,4.899994 4.900024,4.899994l11.5,0c27.000031,0 48.899994,21.900024 48.899994,48.900024c0,27 -21.899963,48.899994 -48.899994,48.899994l-11.5,0c-2.700012,0 -4.900024,2.199982 -4.900024,4.899994c0,2.700012 2.200012,4.899994 4.900024,4.899994l11.5,0c32.299957,0 58.600006,-26.299988 58.600006,-58.600006c0.100037,-32.5 -26.199951,-58.799988 -58.600006,-58.799988z"/>
   <path stroke="null" id="svg_3" d="m204.194427,132.290741c2.700012,0 4.900024,-2.199982 4.900024,-4.899994l0,-107.5c0,-2.699982 -2.200012,-4.899994 -4.900024,-4.899994l-17.099976,0c-2.800049,0 -5.100037,2.299988 -5.100037,5.100006c0,2.799988 2.299988,5.100006 5.100037,5.100006l12.199951,0l0,96.799988l-12.199951,0c-2.800049,0 -5.100037,2.299988 -5.100037,5.100006c0,2.799988 2.299988,5.100006 5.100037,5.100006l17.099976,0l0,0.099976z"/>
   <path stroke="null" id="svg_4" d="m331.094421,78.690765l24.100037,0c2.799988,0 5.100037,-2.299988 5.100037,-5.100006c0,-2.799988 -2.300049,-5.100006 -5.100037,-5.100006l-24.100037,0c-2.799927,0 -5.099976,2.300018 -5.099976,5.100006c-0.000061,2.899994 2.299988,5.100006 5.099976,5.100006z"/>
   <path stroke="null" id="svg_5" d="m372.094421,15.890747c-0.799927,-0.600006 -1.799927,-0.899994 -2.899963,-0.899994l-38.100037,0c-2.799927,0 -5.099976,2.299988 -5.099976,5.099976c0,2.800018 2.300049,5.100006 5.099976,5.100006l33,0l0,10.800018c0,2.799988 2.299988,5.100006 5.100037,5.100006c2.799988,0 5.100037,-2.300018 5.100037,-5.100006l0,-15.899994c-0.000061,-1.800018 -0.800049,-3.300018 -2.200073,-4.200012z"/>
   <path stroke="null" id="svg_6" d="m369.194458,106.190765c-2.800049,0 -5.100037,2.299988 -5.100037,5.100006l0,10.699982l-33,0c-2.799988,0 -5.100037,2.299988 -5.100037,5.100006c0,2.799988 2.300049,5.100006 5.100037,5.100006l38.100037,0c2.799927,0 5.099976,-2.300018 5.099976,-5.100006l0,-15.899994c0,-2.800018 -2.200012,-5 -5.099976,-5z"/>
   <path stroke="null" id="svg_7" d="m296.594482,14.990753c-2.800049,0 -5.099976,2.299988 -5.099976,5.100006c0,2.799988 2.299927,5.100006 5.099976,5.100006l11.199951,0l0,96.799988l-11.199951,0c-2.800049,0 -5.099976,2.299988 -5.099976,5.100006c0,2.799988 2.299927,5.100006 5.099976,5.100006l16.099915,0c2.700012,0 4.900085,-2.200012 4.900085,-4.900024l0,-107.399994c0,-2.700012 -2.200073,-4.899994 -4.900085,-4.899994l-16.099915,0z"/>
   <path stroke="null" id="svg_8" d="m426.494446,14.990753l-31.700012,0c-2.800049,0 -5.100037,2.299988 -5.100037,5.100006c0,2.799988 2.299988,5.100006 5.100037,5.100006l31.700012,0c2.799988,0 5.099915,-2.300018 5.099915,-5.100006c0.000122,-2.800018 -2.299927,-5.100006 -5.099915,-5.100006z"/>
   <path stroke="null" id="svg_9" d="m426.494446,121.990753l-31.700012,0c-2.800049,0 -5.100037,2.299988 -5.100037,5.100006c0,2.799988 2.299988,5.100006 5.100037,5.100006l31.700012,0c2.799988,0 5.099915,-2.300018 5.099915,-5.100006c0.000122,-2.800018 -2.299927,-5.100006 -5.099915,-5.100006z"/>
   <path stroke="null" id="svg_10" d="m415.494446,108.690765l0,-70.199982c0,-2.700012 -2.200012,-4.900024 -4.900085,-4.900024c-2.699951,0 -4.899963,2.200012 -4.899963,4.900024l0,70.199982c0,2.700012 2.200012,4.899994 4.899963,4.899994c2.700073,0 4.900085,-2.200012 4.900085,-4.899994z"/>
   <g stroke="null" id="svg_11">
    <path stroke="null" id="svg_12" d="m468.294434,73.990753c0.5,0.200012 1.099976,0.299988 1.599976,0.299988c2,0 3.900024,-1.299988 4.600037,-3.299988c0.899963,-2.600006 -0.500061,-5.299988 -3,-6.200012c-8.800049,-3.099976 -14.700012,-11.399994 -14.700012,-20.799988c0,-12.100006 9.899963,-22 22,-22c11.099976,0 20.299927,8.299988 21.700012,19l0,3c0,2.799988 2.299988,5.100006 5.099915,5.100006c2.800049,0 5.100037,-2.300018 5.100037,-5.100006l0,-23.899994c0,-2.800018 -2.299988,-5.100006 -5.100037,-5.100006c-2.799927,0 -5.099915,2.299988 -5.099915,5.100006l0,0.799988c-5.700012,-5.399994 -13.299988,-8.600006 -21.700012,-8.600006c-17.5,0 -31.800049,14.200012 -31.800049,31.800018c0,13.399994 8.600098,25.5 21.300049,29.899994z"/>
    <path stroke="null" id="svg_13" d="m490.694397,67.690765c-2.599976,-0.899994 -5.299988,0.5 -6.199951,3.100006c-0.899963,2.600006 0.499939,5.299988 3.100037,6.199982c9.499939,3.200012 15.899963,12.100006 15.899963,22.100006c0,12.899994 -10.500061,23.300018 -23.299988,23.300018c-11.800049,0 -21.599976,-8.800018 -23.100037,-20.300018l0,-3.100006c0,-2.799988 -2.299988,-5.099976 -5.100037,-5.099976c-2.799927,0 -5.099976,2.299988 -5.099976,5.099976l0,28c0,2.800018 2.300049,5.100006 5.099976,5.100006c2.800049,0 5.100037,-2.299988 5.100037,-5.100006l0,-4.299988c6,5.799988 14.100037,9.399994 23.100037,9.399994c18.299988,0 33.099976,-14.899994 33.099976,-33.100006c-0.099976,-14.100006 -9.099976,-26.700012 -22.600037,-31.299988z"/>
   </g>
   <g stroke="null" id="svg_14">
    <g stroke="null" id="svg_15">
     <path stroke="null" id="svg_16" d="m87.294434,47.990753c0,0 0,0 0,0l-28.100037,0c-0.799988,0 -1.599976,-0.399994 -2.099976,-1.200012c-0.399963,-0.699982 -0.5,-1.599976 -0.100037,-2.399994l14,-28.100006c0.400024,-0.799988 1.300049,-1.399994 2.200012,-1.399994c0.900024,0 1.799988,0.5 2.200012,1.399994l13.900024,27.800018c0.299988,0.399994 0.400024,0.899994 0.400024,1.399994c0.099976,1.399994 -1,2.5 -2.400024,2.5z" class="st0"/>
    </g>
    <g stroke="null" id="svg_17">
     <path stroke="null" id="svg_18" d="m129.494385,90.090759c0,0 0,0 0,0l-28.099976,0c-0.800049,0 -1.599976,-0.399994 -2.099976,-1.199982c-0.399963,-0.700012 -0.5,-1.600006 -0.100037,-2.400024l14,-28.099976c0.399963,-0.800018 1.299988,-1.400024 2.200012,-1.400024c0.900024,0 1.799988,0.5 2.199951,1.400024l13.900024,27.799988c0.300049,0.399994 0.400085,0.899994 0.400085,1.399994c0,1.399994 -1.100037,2.5 -2.400085,2.5z" class="st0"/>
    </g>
    <g stroke="null" id="svg_19">
     <path stroke="null" id="svg_20" d="m45.194397,132.290741c0,0 0,0 0,0l-28.099976,0c-0.799988,0 -1.600037,-0.399994 -2.100037,-1.200012c-0.399963,-0.699982 -0.5,-1.599976 -0.099915,-2.399994l14,-28.100006c0.399963,-0.799988 1.299927,-1.399994 2.199951,-1.399994c0.899963,0 1.800049,0.5 2.200012,1.399994l13.899963,27.800018c0.299988,0.399994 0.400024,0.899994 0.400024,1.399994c0,1.400024 -1.100037,2.5 -2.400024,2.5z" class="st0"/>
    </g>
    <g stroke="null" id="svg_21">
     <path stroke="null" id="svg_22" d="m129.394409,47.990753l-28.099976,0c-1.300049,0 -2.399963,-1.100006 -2.399963,-2.399994l0,-28.100006c0,-1.399994 1.099915,-2.399994 2.399963,-2.399994l28.099976,0c1.300049,0 2.400085,1.100006 2.400085,2.399994l0,28.100006c0.099976,1.299988 -1.000061,2.399994 -2.400085,2.399994z" class="st1"/>
    </g>
    <g stroke="null" id="svg_23">
     <path stroke="null" id="svg_24" d="m45.194397,90.090759l-28.099976,0c-1.299988,0 -2.399963,-1.100006 -2.399963,-2.399994l0,-28.100006c0,-1.399994 1.099976,-2.399994 2.399963,-2.399994l28.099976,0c1.299988,0 2.400024,1.100006 2.400024,2.399994l0,28.100006c0,1.299988 -1.100037,2.399994 -2.400024,2.399994z" class="st1"/>
    </g>
    <g stroke="null" id="svg_25">
     <path stroke="null" id="svg_26" d="m87.294434,132.290741l-28.100037,0c-1.299927,0 -2.399963,-1.100006 -2.399963,-2.399994l0,-28.100006c0,-1.399994 1.100037,-2.399994 2.399963,-2.399994l28.100037,0c1.299988,0 2.400024,1.100006 2.400024,2.399994l0,28.100006c0,1.300018 -1.100037,2.399994 -2.400024,2.399994z" class="st1"/>
    </g>
    <g stroke="null" id="svg_27">
     <path stroke="null" id="svg_28" d="m31.094421,47.990753c-9.100037,0 -16.5,-7.399994 -16.5,-16.5s7.399963,-16.5 16.5,-16.5c9.099976,0 16.5,7.399994 16.5,16.5s-7.400024,16.5 -16.5,16.5z" class="st2"/>
    </g>
    <g stroke="null" id="svg_29">
     <path stroke="null" id="svg_30" d="m73.294434,90.090759c-9.100037,0 -16.5,-7.399994 -16.5,-16.5c0,-9.100006 7.399963,-16.5 16.5,-16.5s16.5,7.399994 16.5,16.5c-0.099976,9.100006 -7.400024,16.5 -16.5,16.5z" class="st2"/>
    </g>
    <g stroke="null" id="svg_31">
     <path stroke="null" id="svg_32" d="m115.394409,132.290741c-9.099976,0 -16.499939,-7.399994 -16.499939,-16.5s7.399963,-16.5 16.499939,-16.5c9.099976,0 16.500061,7.399994 16.500061,16.5s-7.400085,16.5 -16.500061,16.5z" class="st2"/>
    </g>
   </g>
  </g>
 </g>
</svg>