<?xml version="1.0" encoding="UTF-8" standalone="no"?>
<svg
   xmlns:dc="http://purl.org/dc/elements/1.1/"
   xmlns:cc="http://creativecommons.org/ns#"
   xmlns:rdf="http://www.w3.org/1999/02/22-rdf-syntax-ns#"
   xmlns:svg="http://www.w3.org/2000/svg"
   xmlns="http://www.w3.org/2000/svg"
   viewBox="0 0 450.88 144.32001"
   height="144.32001"
   width="450.88"
   xml:space="preserve"
   id="svg2"
   version="1.1"><metadata
     id="metadata8"><rdf:RDF><cc:Work
         rdf:about=""><dc:format>image/svg+xml</dc:format><dc:type
           rdf:resource="http://purl.org/dc/dcmitype/StillImage" /></cc:Work></rdf:RDF></metadata><defs
     id="defs6"><clipPath
       id="clipPath20"
       clipPathUnits="userSpaceOnUse"><path
         id="path18"
         d="M 0,0 H 3381.59 V 1082 H 0 Z" /></clipPath></defs><g
     transform="matrix(1.3333333,0,0,-1.3333333,0,144.32)"
     id="g10"><g
       transform="scale(0.1)"
       id="g12"><g
         id="g14"><g
           clip-path="url(#clipPath20)"
           id="g16"><path
             id="path22"
             style="fill:#a7a5a6;fill-opacity:1;fill-rule:nonzero;stroke:none"
             d="m 541.633,258.605 c -155.903,0 -282.735,126.833 -282.735,282.735 0,155.898 126.832,282.734 282.735,282.734 78.254,0 149.168,-31.969 200.41,-83.515 -44.949,36.668 -102.469,58.718 -165.09,58.718 -143.473,0 -260.195,-115.715 -260.195,-257.937 0,-142.231 116.722,-257.942 260.195,-257.942 62.617,0 120.133,22.047 165.082,58.711 C 690.793,290.57 619.879,258.605 541.633,258.605 Z m 193.168,94.114 c -42.867,-35.281 -97.895,-56.531 -157.848,-56.531 -136.422,0 -247.406,109.972 -247.406,245.152 0,135.176 110.984,245.148 247.406,245.148 59.953,0 114.981,-21.25 157.848,-56.531 -35.367,23.117 -77.567,36.617 -122.883,36.617 -124.195,0 -225.238,-101.043 -225.238,-225.234 0,-124.199 101.043,-225.238 225.238,-225.238 45.316,0 87.516,13.496 122.883,36.617 z m 89.285,177.648 C 818.355,418.301 725.383,328.891 611.918,328.891 c -117.145,0 -212.445,95.3 -212.445,212.449 0,117.144 95.3,212.445 212.445,212.445 113.465,0 206.437,-89.41 212.168,-201.476 0.164,-3.641 0.281,-7.293 0.281,-10.969 0,-3.68 -0.117,-7.332 -0.281,-10.973 z m 13.07,10.973 c 0,162.953 -132.57,295.527 -295.523,295.527 -162.953,0 -295.528,-132.574 -295.528,-295.527 0,-162.953 132.575,-295.524 295.528,-295.524 159.07,0 289.121,126.348 295.23,283.95 0.196,3.832 0.293,7.691 0.293,11.574" /><path
             id="path24"
             style="fill:#a7a5a6;fill-opacity:1;fill-rule:nonzero;stroke:none"
             d="m 1034.65,706.402 c 0,3.16 -0.4,5.848 -1.24,8.067 -0.83,2.215 -2.28,4.023 -4.34,5.41 -2.06,1.383 -4.79,2.387 -8.24,3.016 -3.44,0.632 -7.73,0.945 -12.88,0.945 h -60.282 v -34.875 h 60.282 c 5.15,0 9.44,0.312 12.88,0.941 3.45,0.629 6.18,1.637 8.24,3.02 2.06,1.383 3.51,3.191 4.34,5.41 0.84,2.215 1.24,4.902 1.24,8.066 m -86.982,-111.55 h -44.031 v 163.046 h 110.373 c 11.87,0 21.93,-1.226 30.2,-3.664 8.26,-2.453 14.99,-5.945 20.18,-10.457 5.17,-4.496 8.93,-9.937 11.27,-16.304 2.33,-6.368 3.49,-13.477 3.49,-21.309 0,-6.887 -0.95,-12.894 -2.9,-18.035 -1.94,-5.141 -4.55,-9.559 -7.84,-13.238 -3.28,-3.68 -7.09,-6.778 -11.44,-9.309 -4.36,-2.531 -8.95,-4.641 -13.78,-6.293 l 53.42,-64.437 h -51.51 l -49.366,60.035 h -48.066 v -60.035" /><path
             id="path26"
             style="fill:#a7a5a6;fill-opacity:1;fill-rule:nonzero;stroke:none"
             d="M 1356.11,594.848 V 757.91 h 44.02 V 630.57 h 119.04 v -35.722 h -163.06" /><path
             id="path28"
             style="fill:#a7a5a6;fill-opacity:1;fill-rule:nonzero;stroke:none"
             d="M 1547.99,594.848 V 757.91 h 44.02 V 630.57 h 119.04 v -35.722 h -163.06" /><path
             id="path30"
             style="fill:#a7a5a6;fill-opacity:1;fill-rule:nonzero;stroke:none"
             d="m 1803.76,661.426 v -66.578 h -43.91 v 66.578 l -79.04,96.484 h 49.37 l 51.74,-65.637 51.51,65.637 h 49.36 l -79.03,-96.484" /><path
             id="path32"
             style="fill:#a7a5a6;fill-opacity:1;fill-rule:nonzero;stroke:none"
             d="m 1252.63,757.906 h -49.14 l -85.32,-163.062 h 49.14 l 15.3,30.851 15.79,31.813 29.91,60.051 28.58,-57.852 0.02,-0.031 1.07,-2.168 h -0.02 l 15.55,-31.813 15.32,-30.851 h 49.12 l -85.32,163.062" /><path
             id="path34"
             style="fill:#f47216;fill-opacity:1;fill-rule:nonzero;stroke:none"
             d="M 903.637,492.027 H 1068.74 V 441.973 H 957.859 V 391.918 H 1060.41 V 341.863 H 957.859 v -95.941 h -54.222 v 246.105" /><path
             id="path36"
             style="fill:#f47216;fill-opacity:1;fill-rule:nonzero;stroke:none"
             d="m 1129.23,492.027 h 54.22 v -196.05 h 100.47 v -50.055 h -154.69 v 246.105" /><path
             id="path38"
             style="fill:#f47216;fill-opacity:1;fill-rule:nonzero;stroke:none"
             d="m 1376.37,368.977 c 0,-11.59 1.79,-22.192 5.39,-31.793 3.58,-9.633 8.74,-17.965 15.46,-25.028 6.73,-7.094 14.78,-12.578 24.16,-16.523 9.38,-3.945 19.88,-5.903 31.47,-5.903 11.57,0 22.06,1.958 31.44,5.903 9.38,3.945 17.45,9.429 24.17,16.523 6.72,7.063 11.87,15.395 15.46,25.028 3.6,9.601 5.4,20.203 5.4,31.793 0,11.355 -1.8,21.894 -5.4,31.636 -3.59,9.727 -8.74,18.121 -15.46,25.184 -6.72,7.078 -14.79,12.574 -24.17,16.523 -9.38,3.946 -19.87,5.903 -31.44,5.903 -11.59,0 -22.09,-1.957 -31.47,-5.903 -9.38,-3.949 -17.43,-9.445 -24.16,-16.523 -6.72,-7.063 -11.88,-15.457 -15.46,-25.184 -3.6,-9.742 -5.39,-20.281 -5.39,-31.636 m -56.3,0 c 0,19.687 3.29,37.539 9.89,53.531 6.61,15.992 15.82,29.601 27.65,40.832 11.81,11.258 25.82,19.871 42.05,25.918 16.22,6.015 33.95,9.019 53.19,9.019 19.23,0 36.96,-3.004 53.18,-9.019 16.21,-6.047 30.23,-14.66 42.05,-25.918 11.83,-11.231 21.04,-24.84 27.65,-40.832 6.59,-15.992 9.89,-33.844 9.89,-53.531 0,-19.704 -3.3,-37.539 -9.89,-53.532 -6.61,-15.992 -15.82,-29.601 -27.65,-40.828 -11.82,-11.262 -25.84,-19.875 -42.05,-25.922 -16.22,-6.011 -33.95,-9.035 -53.18,-9.035 -19.24,0 -36.97,3.024 -53.19,9.035 -16.23,6.047 -30.24,14.66 -42.05,25.922 -11.83,11.227 -21.04,24.836 -27.65,40.828 -6.6,15.993 -9.89,33.828 -9.89,53.532" /><path
             id="path40"
             style="fill:#f47216;fill-opacity:1;fill-rule:nonzero;stroke:none"
             d="m 1616.21,492.027 h 59.09 l 39.28,-157.82 h 0.69 l 51.45,157.82 h 50.39 l 51.11,-161.972 h 0.69 l 41.36,161.972 h 54.93 l -71.95,-246.105 h -48.32 l -54.24,170.336 H 1790 l -54.22,-170.336 h -46.57 l -73,246.105" /><path
             id="path42"
             style="fill:#f47216;fill-opacity:1;fill-rule:nonzero;stroke:none"
             d="m 2063.23,295.98 h 28.14 c 12.51,0 24.17,1.266 34.94,3.821 10.78,2.554 20.11,6.781 27.99,12.687 7.88,5.903 14.08,13.672 18.59,23.285 4.52,9.633 6.78,21.379 6.78,35.289 0,12.043 -2.26,22.536 -6.78,31.461 -4.51,8.915 -10.6,16.274 -18.25,22.071 -7.64,5.793 -16.63,10.133 -26.94,13.027 -10.32,2.899 -21.15,4.356 -32.49,4.356 h -31.98 z m -54.22,196.051 h 81.33 c 19.7,0 38.41,-2.207 56.14,-6.609 17.73,-4.418 33.19,-11.543 46.41,-21.379 13.2,-9.852 23.68,-22.66 31.45,-38.402 7.75,-15.77 11.65,-34.895 11.65,-57.352 0,-19.937 -3.78,-37.492 -11.31,-52.672 -7.53,-15.176 -17.68,-27.922 -30.41,-38.226 -12.75,-10.325 -27.46,-18.153 -44.14,-23.477 -16.69,-5.344 -34.19,-7.988 -52.5,-7.988 h -88.62 v 246.105" /><path
             id="path44"
             style="fill:#f47216;fill-opacity:1;fill-rule:nonzero;stroke:none"
             d="m 2335.39,368.977 c 0,-11.59 1.78,-22.192 5.39,-31.793 3.58,-9.633 8.73,-17.965 15.45,-25.028 6.74,-7.094 14.79,-12.578 24.17,-16.523 9.38,-3.945 19.87,-5.903 31.46,-5.903 11.58,0 22.07,1.958 31.45,5.903 9.38,3.945 17.45,9.429 24.17,16.523 6.72,7.063 11.87,15.395 15.46,25.028 3.6,9.601 5.4,20.203 5.4,31.793 0,11.355 -1.8,21.894 -5.4,31.636 -3.59,9.727 -8.74,18.121 -15.46,25.184 -6.72,7.078 -14.79,12.574 -24.17,16.523 -9.38,3.946 -19.87,5.903 -31.45,5.903 -11.59,0 -22.08,-1.957 -31.46,-5.903 -9.38,-3.949 -17.43,-9.445 -24.17,-16.523 -6.72,-7.063 -11.87,-15.457 -15.45,-25.184 -3.61,-9.742 -5.39,-20.281 -5.39,-31.636 m -56.31,0 c 0,19.687 3.29,37.539 9.9,53.531 6.61,15.992 15.82,29.601 27.65,40.832 11.8,11.258 25.82,19.871 42.05,25.918 16.22,6.015 33.95,9.019 53.18,9.019 19.24,0 36.96,-3.004 53.19,-9.019 16.21,-6.047 30.23,-14.66 42.05,-25.918 11.83,-11.231 21.04,-24.84 27.64,-40.832 6.6,-15.992 9.9,-33.844 9.9,-53.531 0,-19.704 -3.3,-37.539 -9.9,-53.532 -6.6,-15.992 -15.81,-29.601 -27.64,-40.828 -11.82,-11.262 -25.84,-19.875 -42.05,-25.922 -16.23,-6.011 -33.95,-9.035 -53.19,-9.035 -19.23,0 -36.96,3.024 -53.18,9.035 -16.23,6.047 -30.25,14.66 -42.05,25.922 -11.83,11.227 -21.04,24.836 -27.65,40.828 -6.61,15.993 -9.9,33.828 -9.9,53.532" /><path
             id="path46"
             style="fill:#f47216;fill-opacity:1;fill-rule:nonzero;stroke:none"
             d="m 2761.89,428.074 c -5.33,6.481 -11.89,11.461 -19.64,14.938 -7.77,3.476 -16.75,5.218 -26.94,5.218 -10.2,0 -19.64,-1.96 -28.33,-5.921 -8.7,-3.93 -16.23,-9.446 -22.59,-16.508 -6.39,-7.063 -11.37,-15.457 -14.95,-25.199 -3.61,-9.727 -5.39,-20.266 -5.39,-31.622 0,-11.589 1.78,-22.191 5.39,-31.808 3.58,-9.617 8.52,-17.965 14.76,-25.027 6.27,-7.079 13.61,-12.575 22.09,-16.508 8.44,-3.946 17.55,-5.903 27.28,-5.903 11.12,0 20.97,2.301 29.55,6.938 8.57,4.637 15.63,11.117 21.19,19.469 l 45.2,-33.719 c -10.43,-14.598 -23.65,-25.375 -39.64,-32.328 -15.97,-6.938 -32.43,-10.43 -49.35,-10.43 -19.23,0 -36.96,3.024 -53.18,9.035 -16.23,6.031 -30.25,14.66 -42.05,25.906 -11.83,11.243 -21.04,24.84 -27.65,40.844 -6.59,15.992 -9.9,33.828 -9.9,53.531 0,19.688 3.31,37.543 9.9,53.516 6.61,16.008 15.82,29.617 27.65,40.848 11.8,11.242 25.82,19.875 42.05,25.902 16.22,6.016 33.95,9.035 53.18,9.035 6.96,0 14.19,-0.64 21.73,-1.926 7.53,-1.25 14.95,-3.289 22.24,-6.074 7.29,-2.773 14.31,-6.469 21.03,-11.121 6.72,-4.637 12.75,-10.305 18.07,-17.039 l -41.7,-34.047" /><path
             id="path48"
             style="fill:#f47216;fill-opacity:1;fill-rule:nonzero;stroke:none"
             d="m 2860.6,492.027 h 54.22 V 389.836 l 95.59,102.191 h 70.92 L 2971.82,377.668 3090.71,245.922 h -75.79 l -100.1,116.789 V 245.922 h -54.22 v 246.105" /><path
             id="path50"
             style="fill:#f47216;fill-opacity:1;fill-rule:nonzero;stroke:none"
             d="m 3111.95,472.852 h 2.43 c 0.32,0 0.66,0.015 1.04,0.05 0.38,0.032 0.74,0.121 1.06,0.258 0.33,0.141 0.6,0.356 0.83,0.649 0.23,0.293 0.33,0.699 0.33,1.214 0,0.52 -0.1,0.926 -0.33,1.215 -0.23,0.293 -0.5,0.512 -0.83,0.653 -0.32,0.136 -0.68,0.222 -1.06,0.257 -0.38,0.032 -0.72,0.047 -1.04,0.047 h -2.43 z m -4.91,8.382 h 6.46 c 1.18,0 2.31,-0.082 3.4,-0.257 1.08,-0.172 2.04,-0.477 2.89,-0.903 0.85,-0.433 1.53,-1.039 2.05,-1.812 0.52,-0.782 0.77,-1.77 0.77,-2.981 0,-0.894 -0.13,-1.715 -0.41,-2.457 -0.27,-0.742 -0.63,-1.371 -1.06,-1.89 -0.43,-0.516 -0.91,-0.938 -1.45,-1.27 -0.53,-0.328 -1.07,-0.523 -1.63,-0.594 l 5.18,-8.019 h -5.44 l -4.61,7.761 h -1.18 v -7.761 h -4.97 z m -8.33,-10.32 c 0,-2.269 0.4,-4.398 1.22,-6.387 0.81,-1.988 1.91,-3.715 3.32,-5.187 1.39,-1.481 3.05,-2.645 4.96,-3.492 1.91,-0.856 3.96,-1.282 6.16,-1.282 2.2,0 4.25,0.426 6.15,1.282 1.92,0.847 3.58,2.011 4.97,3.492 1.4,1.472 2.51,3.199 3.32,5.187 0.81,1.989 1.22,4.118 1.22,6.387 0,2.274 -0.41,4.402 -1.22,6.387 -0.81,1.988 -1.92,3.719 -3.32,5.191 -1.39,1.481 -3.05,2.641 -4.97,3.492 -1.9,0.856 -3.95,1.278 -6.15,1.278 -2.2,0 -4.25,-0.422 -6.16,-1.278 -1.91,-0.851 -3.57,-2.011 -4.96,-3.492 -1.41,-1.472 -2.51,-3.203 -3.32,-5.191 -0.82,-1.985 -1.22,-4.113 -1.22,-6.387 z m -5.45,0 c 0,2.914 0.55,5.652 1.67,8.203 1.11,2.555 2.62,4.785 4.54,6.695 1.91,1.915 4.14,3.426 6.7,4.543 2.56,1.118 5.28,1.672 8.2,1.672 2.91,0 5.65,-0.554 8.2,-1.672 2.55,-1.117 4.79,-2.628 6.7,-4.543 1.91,-1.91 3.42,-4.14 4.53,-6.695 1.13,-2.551 1.68,-5.289 1.68,-8.203 0,-2.914 -0.55,-5.648 -1.68,-8.203 -1.11,-2.555 -2.62,-4.785 -4.53,-6.691 -1.91,-1.915 -4.15,-3.43 -6.7,-4.543 -2.55,-1.118 -5.29,-1.676 -8.2,-1.676 -2.92,0 -5.64,0.558 -8.2,1.676 -2.56,1.113 -4.79,2.628 -6.7,4.543 -1.92,1.906 -3.43,4.136 -4.54,6.691 -1.12,2.555 -1.67,5.289 -1.67,8.203" /></g></g></g></g></svg>