<?xml version="1.0" encoding="UTF-8" standalone="no"?>
<svg
   xmlns:dc="http://purl.org/dc/elements/1.1/"
   xmlns:cc="http://creativecommons.org/ns#"
   xmlns:rdf="http://www.w3.org/1999/02/22-rdf-syntax-ns#"
   xmlns:svg="http://www.w3.org/2000/svg"
   xmlns="http://www.w3.org/2000/svg"
   xmlns:sodipodi="http://sodipodi.sourceforge.net/DTD/sodipodi-0.dtd"
   xmlns:inkscape="http://www.inkscape.org/namespaces/inkscape"
   width="256px"
   height="256px"
   viewBox="0 0 256 256"
   version="1.1"
   preserveAspectRatio="xMidYMid"
   id="svg3049"
   inkscape:version="0.48.4 r9939"
   sodipodi:docname="logo.svg">
  <metadata
     id="metadata3073">
    <rdf:RDF>
      <cc:Work
         rdf:about="">
        <dc:format>image/svg+xml</dc:format>
        <dc:type
           rdf:resource="http://purl.org/dc/dcmitype/StillImage" />
      </cc:Work>
    </rdf:RDF>
  </metadata>
  <defs
     id="defs3071" />
  <sodipodi:namedview
     pagecolor="#ffffff"
     bordercolor="#666666"
     borderopacity="1"
     objecttolerance="10"
     gridtolerance="10"
     guidetolerance="10"
     inkscape:pageopacity="0"
     inkscape:pageshadow="2"
     inkscape:window-width="640"
     inkscape:window-height="480"
     id="namedview3069"
     showgrid="false"
     inkscape:zoom="0.921875"
     inkscape:cx="128"
     inkscape:cy="128"
     inkscape:window-x="332"
     inkscape:window-y="184"
     inkscape:window-maximized="0"
     inkscape:current-layer="svg3049" />
  <path
     style="fill:#0002ff"
     inkscape:connector-curvature="0"
     d="m 96.792937,7.1349585 c 24.462503,-6.86249998 51.162503,-5.075 74.975003,3.5875005 -9.2125,25.924999 -19.0625,51.637499 -28.8875,77.337499 -0.7,0.0875 -2.1125,0.2625 -2.825,0.35 -11.175,-3.5875 -23.825,-1.875 -33.7375,4.375 -9.087503,5.5 -15.625003,14.737502 -18.362503,24.937502 -0.5875,1.7 -1.1875,3.3875 -1.775,5.075 -27.0125,-3.2625 -54,-6.85 -81.025,-10.05 -0.0125,-2.45 0.0625,-4.9125 0.25,-7.3625 0.175,-2.45 0.575,-4.9125 1.575,-7.162502 0.225,-0.6125 0.6625,-1.825 0.8875,-2.4375 l -0.1875,-1.1 c 10.975,-41.1375 44.55,-75.2125 85.525,-86.8124995 l 1.1625,0.1875 c 0.6,-0.225 1.8125,-0.6875 2.425,-0.925 z"
     id="path3157" />
  <path
     style="fill:#0063ff"
     inkscape:connector-curvature="0"
     d="m 94.517937,7.0474585 c 0.575,0.0125 1.7125,0.0625 2.275,0.0875 -0.6125,0.2375 -1.825,0.7 -2.425,0.925 l 0.15,-1.0125 z"
     id="path3159" />
  <path
     style="fill:#0063ff"
     inkscape:connector-curvature="0"
     d="m 171.76794,10.722459 c 9.6125,3.562499 18.725,8.387499 27.175,14.174999 -14.1125,21.7125 -29.3625,42.7125 -43.825,64.2125 -1.1,1.7125 -2.3375,3.3625 -4.0125,4.55 -3.4,-2.2875 -7.1875,-3.9125 -11.05,-5.25 0.7125,-0.0875 2.125,-0.2625 2.825,-0.35 9.825,-25.7 19.675,-51.4125 28.8875,-77.337499 z"
     id="path3161" />
  <path
     style="fill:#00e2ca"
     inkscape:connector-curvature="0"
     d="m 198.94294,24.897458 c 16.375,11.6625 30.3625,26.8875 39.5875,44.8 -24.575,12.9625 -49.125,26.0125 -73.725,38.950002 -3.3625,-5.9375 -7.875,-11.337502 -13.7,-14.987502 1.675,-1.1875 2.9125,-2.8375 4.0125,-4.55 14.4625,-21.5 29.7125,-42.5 43.825,-64.2125 z"
     id="path3163" />
  <path
     style="fill:#01ff8d"
     inkscape:connector-curvature="0"
     d="m 164.80544,108.64746 c 24.6,-12.937502 49.15,-25.987502 73.725,-38.950002 5.1,9.75 8.725,20.1625 11.55,30.775002 -0.3125,-0.625002 -0.925,-1.875002 -1.2375,-2.500002 -26.725,6.500002 -53.4375,13.137502 -80.075,20.037502 0.0375,0.65 0.1125,1.9625 0.15,2.625 -0.85,-4.15 -2,-8.2875 -4.1125,-11.9875 z"
     id="path3165" />
  <path
     style="fill:#ededee"
     inkscape:connector-curvature="0"
     d="m 106.31794,92.784958 c 9.9125,-6.25 22.5625,-7.9625 33.7375,-4.375 3.8625,1.3375 7.65,2.9625 11.05,5.25 5.825,3.65 10.3375,9.050002 13.7,14.987502 2.1125,3.7 3.2625,7.8375 4.1125,11.9875 1.05,7.85 0.625,16.025 -2.6,23.35 -4.4375,10.8375 -13.725,19.5 -24.7875,23.3125 -10.9125,4.225 -23.5875,2.7625 -33.7125,-2.8875 -1.5,-1.0375 -3.775,-1.65 -4.0875,-3.7375 -0.1125,0.075 -0.3375,0.225 -0.45,0.3 -3.0125,-1.7875 -5.375003,-4.4 -7.587503,-7.0625 -7.8625,-10.125 -11.025,-23.725 -7.7375,-36.1875 2.7375,-10.2 9.275,-19.437502 18.362503,-24.937502 z"
     id="path3167" />
  <path
     style="fill:#0063ff"
     inkscape:connector-curvature="0"
     d="m 6.855437,95.934958 1.0125,-0.15 c -0.225,0.6125 -0.6625,1.825 -0.8875,2.4375 -0.0375,-0.575 -0.1,-1.7125 -0.125,-2.2875 z"
     id="path3169" />
  <path
     style="fill:#01e3f9"
     inkscape:connector-curvature="0"
     d="m 168.76794,118.00996 c 26.6375,-6.9 53.35,-13.5375 80.075,-20.037502 0.3125,0.625 0.925,1.875 1.2375,2.500002 2.8,11.9375 3.2125,24.225 2.725,36.4375 -1.75,25.925 -11.925,51.1875 -28.5625,71.15 -15.825,18.9875 -37.3125,33.475 -61.175,40.1 -7.6625,-26.2875 -15.3875,-52.55 -22.9125,-78.875 0.35,-0.5 1.0375,-1.4875 1.375,-1.9875 11.0625,-3.8125 20.35,-12.475 24.7875,-23.3125 3.225,-7.325 3.65,-15.5 2.6,-23.35 -0.0375,-0.6625 -0.1125,-1.975 -0.15,-2.625 z"
     id="path3171" />
  <path
     style="fill:#0063ff"
     inkscape:connector-curvature="0"
     d="m 30.655437,206.53496 c -22.5,-27.875 -32.6375,-66.0375 -25.25,-101.15 -0.1875,2.45 -0.2625,4.9125 -0.25,7.3625 27.025,3.2 54.0125,6.7875 81.025,10.05 0.5875,-1.6875 1.1875,-3.375 1.775,-5.075 -3.2875,12.4625 -0.125,26.0625 7.7375,36.1875 -20.75,16.0875 -41.1375,32.65 -61.8375,48.8125 -1.375,0.9875 -2.425,2.3125 -3.2,3.8125 z"
     id="path3173" />
  <path
     style="fill:#0002ff"
     inkscape:connector-curvature="0"
     d="m 33.855437,202.72246 c 20.7,-16.1625 41.0875,-32.725 61.8375,-48.8125 2.2125,2.6625 4.575003,5.275 7.587503,7.0625 0.175,0.3375 0.5375,1.0125 0.7125,1.35 -16.100003,22.5375 -31.925003,45.275 -48.100003,67.7625 -9.525,-6.55 -17.8625,-14.6875 -25.2375,-23.55 0.775,-1.5 1.825,-2.825 3.2,-3.8125 z"
     id="path3175" />
  <path
     style="fill:#01ff8d"
     inkscape:connector-curvature="0"
     d="m 103.28044,160.97246 c 0.1125,-0.075 0.3375,-0.225 0.45,-0.3 0.3125,2.0875 2.5875,2.7 4.0875,3.7375 10.125,5.65 22.8,7.1125 33.7125,2.8875 -0.3375,0.5 -1.025,1.4875 -1.375,1.9875 7.525,26.325 15.25,52.5875 22.9125,78.875 -26.8875,7.7375 -56.35,6.35 -82.237503,-4.35 -8.875,-3.475 -17.05,-8.4375 -25.025,-13.6125 l 0.0875,-0.1125 c 16.175,-22.4875 32,-45.225 48.100003,-67.7625 -0.175,-0.3375 -0.5375,-1.0125 -0.7125,-1.35 z"
     id="path3177" />
</svg>
