<?xml version="1.0" encoding="utf-8"?>
<!-- Generator: Adobe Illustrator 18.1.1, SVG Export Plug-In . SVG Version: 6.00 Build 0)  -->
<!DOCTYPE svg PUBLIC "-//W3C//DTD SVG 1.1//EN" "http://www.w3.org/Graphics/SVG/1.1/DTD/svg11.dtd">
<svg version="1.1" id="Calque_1" xmlns="http://www.w3.org/2000/svg" xmlns:xlink="http://www.w3.org/1999/xlink" x="0px" y="0px"
	 viewBox="0 0 136.3 35.9" enable-background="new 0 0 136.3 35.9" xml:space="preserve">
<g>
	<path fill="#454545" d="M13.5,21.5c0.2-1.1,0.1-2-0.5-2.6c-0.5-0.6-1.6-1.2-3.2-1.9c-2.6-0.9-4.6-2-5.8-3.3c-1.2-1.3-1.6-3-1.2-5.1
		C3.3,6.6,4.3,5,6,3.9c1.7-1.1,3.8-1.7,6.2-1.7c2.6,0,4.6,0.7,6,2.1c1.4,1.4,1.9,3.2,1.4,5.6L19.5,10h-4.8c0.2-1.2,0-2.1-0.6-2.8
		s-1.5-1.1-2.7-1.1c-0.8,0-1.6,0.2-2.3,0.7C8.4,7.3,8,7.9,7.8,8.6c-0.2,1.1-0.1,1.9,0.5,2.5c0.6,0.5,1.8,1.2,3.8,1.9
		c2.5,0.9,4.3,2,5.4,3.3c1.1,1.3,1.4,3,1,5.2c-0.4,2.2-1.5,3.8-3.2,4.9C13.6,27.4,11.5,28,9,28c-2.5,0-4.6-0.6-6.4-1.9
		C1,24.8,0.4,22.9,1,20.3l0-0.1h4.8c-0.3,1.5,0,2.5,0.8,3.1c0.8,0.6,1.9,0.8,3.2,0.8c0.8,0,1.6-0.2,2.4-0.7
		C12.9,22.9,13.4,22.3,13.5,21.5z"/>
	<path fill="#454545" d="M9,28.7c-2.7,0-5-0.7-6.8-2c-2-1.4-2.7-3.6-2-6.6l0.2-0.7h6.3l-0.2,0.9c-0.3,1.7,0.3,2.1,0.5,2.3
		c0.7,0.5,1.6,0.7,2.8,0.7c0.7,0,1.3-0.2,1.9-0.6c0.6-0.4,0.9-0.8,1-1.4c0.2-0.9,0.1-1.5-0.3-1.9c-0.3-0.3-1.1-0.9-3-1.7
		c-2.7-0.9-4.7-2.1-6-3.5c-1.4-1.5-1.8-3.4-1.4-5.8c0.5-2.3,1.6-4,3.5-5.3c1.8-1.2,4-1.8,6.6-1.8c2.7,0,4.9,0.8,6.5,2.3
		c1.6,1.6,2.2,3.7,1.6,6.3l-0.1,0.3L20,10.7h-6.2L14,9.8c0.2-1,0.1-1.7-0.4-2.2c-0.5-0.5-1.2-0.8-2.2-0.8c-0.7,0-1.3,0.2-1.9,0.6
		C9,7.8,8.7,8.3,8.6,8.8c-0.3,1.3,0.2,1.6,0.3,1.7c0.3,0.3,1.2,0.9,3.6,1.8c2.6,0.9,4.5,2.1,5.7,3.5c1.3,1.5,1.6,3.4,1.2,5.9
		c-0.5,2.4-1.7,4.2-3.5,5.4C13.9,28.1,11.6,28.7,9,28.7z M1.6,20.9c-0.4,2,0.1,3.5,1.5,4.5c1.6,1.2,3.6,1.7,5.9,1.7
		c2.3,0,4.3-0.5,5.8-1.5c1.5-1,2.5-2.4,2.9-4.4c0.4-2,0.1-3.5-0.8-4.6c-1-1.2-2.7-2.2-5-3c-2.1-0.8-3.4-1.5-4-2.1
		c-0.8-0.7-1-1.8-0.7-3.2c0.2-0.9,0.7-1.7,1.6-2.3c0.8-0.6,1.8-0.9,2.7-0.9c1.4,0,2.6,0.4,3.3,1.3c0.6,0.7,0.9,1.6,0.8,2.6h3.4
		c0.3-1.9-0.1-3.3-1.3-4.4c-1.3-1.2-3.1-1.9-5.5-1.9C10,2.9,8,3.5,6.4,4.5C4.9,5.5,4,6.9,3.6,8.8c-0.4,1.9-0.1,3.3,1,4.4
		c1.1,1.2,3,2.3,5.5,3.1c1.8,0.7,2.9,1.4,3.5,2.1c0.7,0.8,0.9,1.8,0.7,3.2c-0.2,1-0.8,1.7-1.7,2.3c-0.9,0.6-1.8,0.9-2.8,0.9
		c-1.4,0-2.7-0.3-3.6-1c-0.6-0.4-1.3-1.3-1.2-2.9H1.6z"/>
</g>
<g>
	<path fill="#454545" d="M29.1,24.1c0.8,0,1.4-0.3,2-0.8c0.5-0.5,0.9-1.2,1-2.1h4.5l0,0.1c-0.3,2-1.2,3.6-2.7,4.8
		c-1.5,1.2-3.4,1.8-5.4,1.8c-2.5,0-4.4-0.9-5.5-2.7c-1.2-1.8-1.5-4-1.1-6.7l0.1-0.5c0.4-2.8,1.5-5.1,3.2-6.8
		c1.7-1.7,3.8-2.6,6.4-2.6c2.1,0,3.7,0.7,4.8,2c1.1,1.3,1.5,3,1.1,5.2l0,0.1H33c0.2-1,0.1-1.8-0.3-2.4c-0.3-0.6-0.9-0.9-1.8-0.9
		c-1.1,0-2,0.5-2.7,1.6c-0.7,1-1.1,2.4-1.4,4l-0.1,0.5c-0.3,1.7-0.3,3.1,0,4.1C27.2,23.6,27.9,24.1,29.1,24.1z"/>
	<path fill="#454545" d="M28.5,28.7c-2.8,0-4.8-1-6.2-3c-1.3-1.9-1.7-4.4-1.2-7.3l0.1-0.5c0.5-3,1.6-5.4,3.4-7.2
		c1.8-1.9,4.2-2.8,7-2.8c2.3,0,4.1,0.8,5.4,2.2c1.3,1.5,1.7,3.4,1.3,5.8l0,0.1l-0.2,0.5l-0.5,0.1h-5.4l0.1-0.9
		c0.1-0.8,0.1-1.5-0.2-1.9c-0.1-0.3-0.4-0.5-1.1-0.5c-0.9,0-1.5,0.4-2,1.2c-0.6,1-1,2.2-1.3,3.7l-0.1,0.5c-0.3,1.6-0.3,2.9,0,3.7
		c0.1,0.5,0.4,0.9,1.5,0.9c0.6,0,1.1-0.2,1.5-0.6c0.4-0.4,0.7-1,0.8-1.7l0.1-0.6h5.7l0.3,0.8l0,0.2c-0.3,2.2-1.3,3.9-3,5.3
		C32.7,28,30.7,28.7,28.5,28.7z M31.6,9.4c-2.4,0-4.4,0.8-5.9,2.4c-1.6,1.6-2.6,3.8-3,6.4l-0.1,0.5c-0.4,2.5-0.1,4.6,1,6.2
		c1,1.6,2.6,2.3,4.9,2.3c1.9,0,3.5-0.5,5-1.7c1.2-1,2-2.1,2.3-3.6h-3.1c-0.2,0.7-0.6,1.4-1.1,1.9c-0.7,0.7-1.5,1-2.5,1
		c-1.5,0-2.6-0.7-3-2c-0.3-1.1-0.4-2.5-0.1-4.4l0.1-0.5c0.3-1.7,0.8-3.1,1.5-4.2c0.8-1.3,1.9-1.9,3.3-1.9c1.4,0,2.1,0.7,2.4,1.3
		c0.3,0.6,0.5,1.2,0.4,2h3.1c0.2-1.6-0.1-3-1-4C34.8,9.9,33.5,9.4,31.6,9.4z"/>
</g>
<g>
	<path fill="#454545" d="M49.2,27.6c-0.1-0.3-0.1-0.7-0.2-1.1c0-0.4-0.1-0.7-0.1-1.1c-0.7,0.8-1.4,1.4-2.3,1.8
		C45.9,27.7,45,28,44,28c-1.6,0-2.8-0.5-3.7-1.5s-1.1-2.4-0.8-4.1c0.4-1.9,1.3-3.4,2.8-4.3c1.5-0.9,3.5-1.4,6-1.4h2.2l0.3-1.5
		c0.2-1,0.1-1.7-0.2-2.1c-0.3-0.5-0.8-0.7-1.7-0.7c-0.7,0-1.2,0.2-1.7,0.6c-0.5,0.4-0.8,0.9-0.9,1.6l-4.8,0l0-0.1
		c0.3-1.7,1.2-3.1,2.8-4.2c1.6-1.1,3.5-1.6,5.7-1.6c2,0,3.5,0.6,4.7,1.7c1.1,1.1,1.5,2.7,1.1,4.8l-1.5,7.7c-0.2,0.9-0.3,1.8-0.3,2.5
		c0,0.7,0,1.5,0.2,2.2H49.2z M46.1,24.3c0.6,0,1.2-0.2,1.8-0.5c0.6-0.3,1.1-0.7,1.5-1.2l0.6-3.2h-2.2c-0.8,0-1.6,0.3-2.2,0.8
		c-0.6,0.5-1,1.2-1.1,1.9c-0.1,0.7-0.1,1.2,0.2,1.5C45,24.1,45.5,24.3,46.1,24.3z"/>
	<path fill="#454545" d="M44,28.7c-1.8,0-3.2-0.6-4.2-1.8c-1-1.2-1.3-2.8-0.9-4.7c0.4-2.1,1.5-3.8,3.1-4.8c1.6-1,3.7-1.5,6.5-1.5H50
		l0.2-0.9c0.2-1,0-1.4-0.1-1.6c-0.1-0.2-0.5-0.4-1-0.4c-0.5,0-0.9,0.1-1.2,0.4c-0.3,0.3-0.6,0.7-0.7,1.2l-0.1,0.6l-5.9,0l-0.3-0.8
		l0-0.2c0.3-1.9,1.3-3.5,3.1-4.7c1.7-1.2,3.8-1.8,6.2-1.8c2.2,0,3.9,0.7,5.2,1.9c1.3,1.3,1.8,3.2,1.3,5.5L55.1,23
		c-0.2,0.9-0.3,1.7-0.3,2.4c0,0.7,0,1.4,0.2,2.1l0.1,0.9h-6.5l-0.1-0.6c0-0.2-0.1-0.5-0.1-0.7c-0.4,0.3-0.8,0.6-1.3,0.9
		C46.2,28.5,45.1,28.7,44,28.7z M48.4,17.4c-2.4,0-4.3,0.4-5.6,1.3c-1.3,0.8-2.1,2.1-2.4,3.8c-0.3,1.5-0.1,2.6,0.6,3.4
		c0.7,0.9,1.7,1.3,3.1,1.3c0.9,0,1.6-0.2,2.4-0.6c0.8-0.4,1.5-1,2.1-1.7l1.3-1.5v2c0,0.4,0,0.7,0,1c0,0.1,0,0.3,0,0.4h3.5
		c-0.1-0.5-0.1-1-0.1-1.5c0-0.8,0.1-1.7,0.3-2.6l1.5-7.7c0.4-1.8,0.1-3.2-0.9-4.1c-1-1-2.4-1.5-4.1-1.5c-2.1,0-3.9,0.5-5.3,1.5
		c-1.2,0.8-1.9,1.8-2.3,2.9l3.3,0c0.2-0.6,0.5-1.1,1-1.5c0.6-0.5,1.4-0.8,2.2-0.8c1.1,0,1.8,0.4,2.3,1c0.4,0.6,0.5,1.5,0.3,2.7
		l-0.4,2.1H48.4z M46.1,25c-0.9,0-1.5-0.3-2-0.8c-0.4-0.5-0.5-1.3-0.3-2.1c0.2-0.9,0.6-1.7,1.3-2.3c0.7-0.7,1.6-1,2.7-1H51l-0.9,4.2
		L50,23.1c-0.5,0.5-1,1-1.7,1.4C47.6,24.8,46.8,25,46.1,25z M47.8,20.2c-0.7,0-1.2,0.2-1.7,0.6c-0.5,0.4-0.8,0.9-0.9,1.5
		c-0.1,0.3-0.1,0.7,0.1,0.9c0.1,0.2,0.4,0.2,0.8,0.2c0.5,0,1-0.1,1.5-0.4c0.5-0.2,0.8-0.5,1.2-0.9l0.4-2.1H47.8z"/>
</g>
<g>
	<path fill="#454545" d="M63.2,27.6h-5l5.4-26.9h5L63.2,27.6z"/>
	<path fill="#454545" d="M63.8,28.4h-6.5L63,0h6.5L63.8,28.4z M59.2,26.9h3.4l5.1-25.4h-3.4L59.2,26.9z"/>
</g>
<g>
	<path fill="#454545" d="M73.4,27.6h-5L72.1,9h5L73.4,27.6z M78,4.5h-5l0.8-3.8h5L78,4.5z"/>
	<path fill="#454545" d="M74,28.4h-6.5l4-20.1H78L74,28.4z M69.3,26.9h3.4l3.4-17.1h-3.4L69.3,26.9z M78.6,5.3h-6.5L73.1,0h6.5
		L78.6,5.3z M73.9,3.8h3.4l0.5-2.3h-3.4L73.9,3.8z"/>
</g>
<g>
	<path fill="#454545" d="M86.3,11.4c0.7-0.9,1.6-1.6,2.5-2.1c0.9-0.5,1.9-0.7,2.9-0.7c1.6,0,2.9,0.6,3.7,1.8c0.8,1.2,0.9,3,0.4,5.5
		l-2.3,11.6h-5L90.8,16c0.3-1.3,0.2-2.2-0.1-2.7c-0.3-0.5-1-0.7-1.9-0.7c-0.5,0-1.1,0.1-1.6,0.4c-0.5,0.3-1,0.7-1.4,1.1l-2.7,13.5
		h-5L81.9,9h4.6L86.3,11.4z"/>
	<path fill="#454545" d="M94.1,28.4h-6.5l2.5-12.5c0.3-1.6,0.1-2.1,0-2.2c-0.2-0.3-0.8-0.4-1.3-0.4c-0.4,0-0.8,0.1-1.2,0.3
		c-0.4,0.2-0.7,0.5-1.1,0.8l-2.8,13.9h-6.5l4-20.1h6.1l-0.1,1.2c0.4-0.3,0.8-0.5,1.2-0.7c1-0.5,2.1-0.8,3.3-0.8
		c1.9,0,3.3,0.7,4.3,2.1c0.9,1.4,1.1,3.4,0.6,6.1L94.1,28.4z M89.4,26.9h3.4l2.2-11c0.5-2.3,0.3-4-0.3-5c-0.7-1-1.6-1.5-3-1.5
		c-0.9,0-1.8,0.2-2.6,0.6c-0.8,0.4-1.6,1.1-2.3,1.9l-0.8,1c0.3-0.2,0.6-0.4,0.9-0.6c0.6-0.3,1.3-0.5,1.9-0.5c1.2,0,2,0.4,2.5,1.1
		c0.5,0.7,0.5,1.7,0.2,3.3L89.4,26.9z M79.1,26.9h3.4l2.7-13.2l0.5-3.9h-3.2L79.1,26.9z"/>
</g>
<g>
	<path fill="#45B0E5" d="M99.3,18.1c0.6-3.1,1.6-5.5,3-7.1c1.4-1.6,3.2-2.4,5.4-2.4c0.9,0,1.7,0.2,2.4,0.6c0.7,0.4,1.3,1,1.8,1.7
		l0.7-2h4.3l-3.6,18.1c-0.5,2.6-1.7,4.6-3.4,6s-4,2.1-6.7,2.1c-0.8,0-1.7-0.1-2.7-0.4c-1-0.3-1.8-0.6-2.6-1l1.7-3.8
		c0.6,0.4,1.3,0.6,2,0.8c0.7,0.2,1.5,0.3,2.4,0.3c1.1,0,2.1-0.4,2.8-1.1c0.8-0.7,1.3-1.7,1.5-2.9l0.1-0.7c-0.6,0.5-1.2,0.9-1.9,1.2
		c-0.7,0.3-1.4,0.4-2.1,0.4c-2,0-3.5-0.9-4.5-2.7c-1-1.8-1.2-4.1-0.7-6.8L99.3,18.1z M104.2,18.5c-0.4,1.8-0.4,3.1-0.1,4.1
		c0.3,1,1,1.5,2.1,1.5c0.6,0,1.2-0.2,1.7-0.5s1-0.8,1.4-1.4l1.7-8.3c-0.2-0.5-0.5-0.8-0.9-1s-1-0.3-1.6-0.3c-1,0-1.9,0.5-2.6,1.5
		c-0.7,1-1.2,2.4-1.6,4.1L104.2,18.5z"/>
	<path fill="#45B0E5" d="M103.2,35.9c-0.9,0-1.9-0.1-2.9-0.4c-1-0.3-2-0.7-2.8-1.1L96.9,34l2.3-5.1l0.7,0.4c0.6,0.3,1.2,0.6,1.8,0.8
		c0.6,0.2,1.4,0.3,2.2,0.3c0.9,0,1.7-0.3,2.3-0.9c0.4-0.4,0.7-0.8,1-1.4c-0.1,0.1-0.3,0.1-0.4,0.2c-0.8,0.3-1.6,0.5-2.4,0.5
		c-2.3,0-4-1.1-5.2-3.1c-1.1-2-1.3-4.4-0.8-7.3l0.1-0.4c0.7-3.3,1.7-5.8,3.2-7.4c1.5-1.8,3.5-2.6,5.9-2.6c1,0,2,0.2,2.8,0.7
		c0.4,0.2,0.8,0.5,1.2,0.9l0.5-1.3h5.8l-3.8,19c-0.6,2.8-1.8,5-3.7,6.4C108.4,35.1,106,35.9,103.2,35.9z M98.9,33.4
		c0.5,0.3,1.1,0.5,1.8,0.7c0.9,0.2,1.7,0.4,2.5,0.4c2.5,0,4.6-0.6,6.2-1.9c1.6-1.3,2.7-3.1,3.2-5.6L116,9.7h-2.9l-1.1,3l-0.8-1.3
		c-0.4-0.6-0.9-1.1-1.5-1.5c-0.6-0.4-1.3-0.5-2.1-0.5c-2,0-3.5,0.7-4.8,2.1c-1.3,1.5-2.2,3.8-2.8,6.7l-0.1,0.4
		c-0.5,2.5-0.3,4.6,0.6,6.3c0.9,1.6,2.1,2.4,3.8,2.4c0.6,0,1.3-0.1,1.9-0.4c0.6-0.3,1.2-0.6,1.7-1.1l1.6-1.5l-0.5,2.9
		c-0.3,1.4-0.9,2.5-1.8,3.3c-0.9,0.8-2,1.3-3.4,1.3c-0.9,0-1.8-0.1-2.6-0.3c-0.5-0.1-1-0.3-1.5-0.5L98.9,33.4z M106.2,24.8
		c-1.4,0-2.4-0.7-2.8-2c-0.3-1.1-0.3-2.6,0.1-4.5l0.1-0.4c0.4-1.8,0.9-3.3,1.7-4.4c0.9-1.2,1.9-1.8,3.2-1.8c0.8,0,1.4,0.1,2,0.4
		c0.6,0.3,1,0.8,1.3,1.4l0.1,0.2l-1.7,8.7l-0.1,0.1c-0.5,0.7-1,1.2-1.6,1.6C107.6,24.6,106.9,24.8,106.2,24.8z M108.4,13.3
		c-0.8,0-1.4,0.4-2,1.2c-0.6,0.9-1.1,2.2-1.4,3.8l-0.1,0.4c-0.3,1.6-0.4,2.9-0.1,3.8c0.2,0.7,0.6,1,1.4,1c0.5,0,0.9-0.1,1.3-0.4
		c0.4-0.2,0.8-0.6,1.1-1.1l1.6-7.9c-0.1-0.2-0.3-0.4-0.5-0.5C109.3,13.3,108.9,13.3,108.4,13.3z"/>
</g>
<g>
	<path fill="#45B0E5" d="M118.9,18.1c0.5-2.9,1.5-5.2,3.2-6.9c1.7-1.7,3.9-2.6,6.5-2.6c2.5,0,4.3,0.9,5.6,2.7s1.6,4.1,1.2,6.8
		l-0.1,0.4c-0.5,2.9-1.6,5.2-3.3,6.9c-1.7,1.7-3.9,2.6-6.5,2.6c-2.5,0-4.3-0.9-5.6-2.7c-1.2-1.8-1.6-4.1-1.2-6.8L118.9,18.1z
		 M123.8,18.5c-0.3,1.8-0.3,3.2,0.1,4.1c0.3,1,1.1,1.5,2.3,1.5c1.1,0,2-0.5,2.7-1.6c0.7-1,1.2-2.4,1.5-4.1l0.1-0.4
		c0.3-1.7,0.2-3.1-0.1-4.1c-0.3-1-1.1-1.5-2.3-1.5c-1.1,0-2,0.5-2.7,1.6s-1.2,2.4-1.4,4L123.8,18.5z"/>
	<path fill="#45B0E5" d="M125.6,28.7c-2.7,0-4.8-1-6.2-3c-1.3-1.9-1.8-4.4-1.3-7.4l0-0.3c0.5-3,1.6-5.5,3.5-7.3
		c1.8-1.9,4.2-2.8,7-2.8c2.7,0,4.8,1,6.2,3c1.3,1.9,1.8,4.4,1.3,7.3l0,0.4c-0.5,3.1-1.7,5.5-3.5,7.3
		C130.8,27.8,128.4,28.7,125.6,28.7z M128.7,9.4c-2.4,0-4.4,0.8-5.9,2.4c-1.6,1.6-2.6,3.8-3,6.5l0,0.4c-0.4,2.6-0.1,4.7,1,6.3
		c1.1,1.6,2.7,2.3,4.9,2.3c2.4,0,4.4-0.8,5.9-2.3c1.6-1.6,2.6-3.8,3.1-6.5l0-0.3c0.4-2.6,0.1-4.7-1-6.3
		C132.5,10.2,130.9,9.4,128.7,9.4z M126.2,24.8c-1.9,0-2.7-1.1-3-2c-0.4-1.1-0.4-2.6-0.1-4.5l0-0.3c0.3-1.7,0.8-3.2,1.6-4.3
		c0.9-1.3,2-1.9,3.3-1.9c1.5,0,2.5,0.7,3,2c0.4,1.1,0.4,2.6,0.1,4.5l-0.1,0.3c-0.3,1.8-0.8,3.3-1.6,4.4
		C128.7,24.2,127.6,24.8,126.2,24.8z M128,13.3c-0.9,0-1.5,0.4-2.1,1.2c-0.6,1-1.1,2.2-1.3,3.7l-0.1,0.4c-0.3,1.7-0.2,2.9,0.1,3.8
		c0.2,0.5,0.5,1,1.6,1c0.8,0,1.5-0.4,2.1-1.2c0.6-0.9,1.1-2.2,1.3-3.8l0-0.3c0.3-1.6,0.2-2.9-0.1-3.7
		C129.3,13.6,128.9,13.3,128,13.3z"/>
</g>
</svg>
