<?xml version="1.0" standalone="no"?>
<!DOCTYPE svg PUBLIC "-//W3C//DTD SVG 20010904//EN"
 "http://www.w3.org/TR/2001/REC-SVG-20010904/DTD/svg10.dtd">
<svg version="1.0" xmlns="http://www.w3.org/2000/svg"
 width="722.000000pt" height="722.000000pt" viewBox="0 0 722.000000 722.000000"
 preserveAspectRatio="xMidYMid meet">
<metadata>
Created by potrace 1.13, written by Peter Selinger 2001-2015
</metadata>
<g transform="translate(0.000000,722.000000) scale(0.100000,-0.100000)"
fill="#000000" stroke="none">
<path d="M3769 7206 c-3 -3 -221 -32 -484 -65 -264 -33 -496 -62 -515 -64 -19
-3 -159 -43 -310 -89 -195 -59 -291 -93 -330 -117 -306 -190 -812 -498 -836
-510 -22 -11 -57 -54 -111 -136 -44 -66 -236 -358 -428 -650 -191 -291 -359
-541 -372 -556 -12 -14 -23 -31 -23 -39 0 -17 -319 -1119 -330 -1140 -5 -9 -9
-119 -10 -245 l-1 -230 121 -535 c121 -532 122 -536 186 -678 35 -78 64 -148
64 -155 0 -7 94 -168 208 -359 l209 -346 251 -237 c246 -231 254 -237 359
-289 60 -29 423 -206 808 -393 l700 -340 245 -12 c135 -7 382 -12 549 -12
l305 0 285 53 285 53 760 437 c419 240 766 441 771 446 6 5 218 342 470 748
l460 739 81 435 c45 239 81 437 79 440 -2 3 -37 280 -80 615 -42 336 -81 618
-86 628 -15 28 -195 547 -204 587 -4 19 -15 44 -25 55 -18 21 -405 570 -436
621 -11 16 -84 92 -164 169 -80 76 -215 208 -301 292 -86 84 -161 153 -166
153 -6 0 -271 124 -589 276 -319 152 -601 286 -629 299 -32 15 -169 46 -380
85 -410 78 -379 73 -386 66z m-1526 -2150 l567 -319 0 -668 c0 -368 -3 -669
-6 -669 -3 0 -273 150 -600 333 l-594 332 0 673 0 674 33 -19 c17 -11 287
-162 600 -337z m1273 -718 l594 -333 0 -673 0 -674 -42 24 c-24 13 -294 165
-600 337 l-558 313 0 669 c0 368 3 669 6 669 3 0 273 -150 600 -332z m1892
-339 l-3 -671 -595 -334 -595 -334 -3 667 c-1 430 1 670 8 677 12 12 1172 665
1183 666 4 0 6 -302 5 -671z m-1892 -1121 l593 -333 1 -672 c0 -370 -1 -673
-3 -673 -2 0 -271 150 -598 334 l-594 334 -3 671 c-1 369 1 671 4 671 4 0 273
-150 600 -332z"/>
</g>
</svg>
