<svg xmlns="http://www.w3.org/2000/svg" width="720.46px" height="491px"><title>tutum</title><g id="Page-1" fill="none"><g fill="#0096E5"><g><g><path d="M602.4 203.9c1.68-9.76 2.73-19.75 2.73-30C605.13 77.86 527.5 0 431.73 0c-68.32 0-127.25 39.76-155.5 97.4-18.22-8.34-38.4-13.1-59.75-13.1-79.73 0-144.36 64.82-144.36 144.8 0 13.76 2.04 27.04 5.6 39.66C32.6 283.86 0 326.53 0 376.92c0 16.8 3.7 32.7 10.22 47.06L209.77 223.8l-33.54-32.42 125.4-19.3-19.56 121.6-31.87-30.8-204.6 205.2c19 14.33 42.55 22.92 68.14 22.92h36.22l311.27-312.24-33.54-32.42 125.4-19.3-19.56 121.6-31.88-30.8L229.34 491H360.2l154.12-154.6-33.54-32.4 125.4-19.3-19.56 121.6-31.87-30.8L439.6 491H576.1c79.74 0 144.36-64.83 144.36-144.8 0-70.96-50.93-129.9-118.1-142.3"/></g></g></g></g></svg>