<?xml version="1.0" encoding="UTF-8" standalone="no"?>
<svg
   xmlns:dc="http://purl.org/dc/elements/1.1/"
   xmlns:cc="http://creativecommons.org/ns#"
   xmlns:rdf="http://www.w3.org/1999/02/22-rdf-syntax-ns#"
   xmlns:svg="http://www.w3.org/2000/svg"
   xmlns="http://www.w3.org/2000/svg"
   xml:space="preserve"
   enable-background="new 0 0 431.45 120.114"
   viewBox="0 0 255.99999 256"
   height="256"
   width="256"
   y="0px"
   x="0px"
   id="Layer_1"
   version="1.1"><metadata
     id="metadata4260"><rdf:RDF><cc:Work
         rdf:about=""><dc:format>image/svg+xml</dc:format><dc:type
           rdf:resource="http://purl.org/dc/dcmitype/StillImage" /><dc:title></dc:title></cc:Work></rdf:RDF></metadata><defs
     id="defs4258" /><path
     d="m 119.97568,108.73039 c -10.64899,17.9011 -20.85155,35.23671 -31.26641,52.44137 -2.674649,4.41674 -3.998084,8.01402 -1.861143,13.6292 5.89891,15.51018 -2.422659,30.60369 -18.063798,34.70099 -14.750251,3.86514 -29.121527,-5.82947 -32.048164,-21.6214 -2.593298,-13.97842 8.254108,-27.68103 23.665085,-29.86559 1.291688,-0.18453 2.609171,-0.20635 4.779842,-0.36905 7.551716,-12.66292 15.287959,-25.63338 23.442859,-39.31019 C 73.879653,103.67475 65.10371,86.535567 67.046204,65.299095 68.419243,50.286936 74.322121,37.314493 85.111987,26.681376 105.77702,6.3199193 137.30335,3.0222443 161.63512,18.651478 c 23.36943,15.012159 34.072,44.254719 24.94882,69.282922 -6.87908,-1.865111 -13.80578,-3.746095 -21.42099,-5.811606 2.86513,-13.914919 0.74605,-26.411164 -8.63904,-37.115711 -6.2005,-7.067579 -14.15698,-10.772007 -23.20475,-12.13711 -18.13722,-2.740126 -35.94506,8.91285 -41.22888,26.714739 -5.998118,20.204709 3.079417,36.708954 27.8854,49.145678 z"
     id="path4232"
     style="clip-rule:evenodd;fill:#c73a63;fill-rule:evenodd" /><path
     d="m 150.3869,87.561378 c 7.50212,13.234362 15.11931,26.669112 22.66904,39.980842 38.15938,-11.80575 66.92971,9.31762 77.25131,31.93309 12.46649,27.31791 3.94451,59.67362 -20.54003,76.52708 -25.13138,17.30189 -56.91367,14.34548 -79.17991,-7.8791 5.67469,-4.75008 11.37718,-9.52198 17.47053,-14.61929 21.99243,14.24429 41.22689,13.57364 55.50689,-3.29371 12.1768,-14.38914 11.91291,-35.84386 -0.61707,-49.93141 -14.46056,-16.25622 -33.82994,-16.75226 -57.24303,-1.14684 -9.71248,-17.23045 -19.59359,-34.32399 -28.99851,-51.67944 -3.17069,-5.84931 -6.67274,-9.242224 -13.81968,-10.480354 -11.93671,-2.06947 -19.64319,-12.319647 -20.1055,-23.80397 -0.45438,-11.357336 6.23622,-21.623383 16.69473,-25.623451 10.3593,-3.962369 22.51625,-0.763901 29.48462,8.043787 5.69454,7.196551 7.5041,15.295896 4.50801,24.171047 -0.83334,2.474248 -1.91272,4.869129 -3.0814,7.801719 z"
     id="path4234"
     style="clip-rule:evenodd;fill:#4b4b4b;fill-rule:evenodd" /><path
     d="m 168.31777,195.7537 c -15.08955,0 -30.23465,0 -45.93729,0 -4.40286,18.10943 -13.91294,32.73071 -30.300121,42.02849 -12.738312,7.22631 -26.468703,9.67674 -41.082047,7.31758 C 24.093094,240.76041 2.0927197,216.53976 0.15617882,189.26549 -2.0363187,158.37012 19.200153,130.90736 47.506189,124.7386 c 1.954398,7.09734 3.928639,14.26215 5.883037,21.34163 -25.970679,13.25023 -34.958928,29.94495 -27.690947,50.82031 6.398919,18.37135 24.573831,28.44096 44.308292,24.54605 20.153121,-3.97625 30.314009,-20.72456 29.073907,-47.60398 19.105482,0 38.226842,-0.19841 57.334302,0.0972 7.46045,0.11707 13.22047,-0.65675 18.84159,-7.23425 9.25413,-10.82359 26.28616,-9.84738 36.25261,0.37501 10.18469,10.4466 9.69659,27.25641 -1.08137,37.26254 -10.39899,9.65492 -26.82784,9.13904 -36.55618,-1.26392 -2.00004,-2.14487 -3.57546,-4.69055 -5.55366,-7.32551 z"
     id="path4236"
     style="clip-rule:evenodd;fill:#4a4a4a;fill-rule:evenodd" /></svg>