<svg width="23" height="12" viewBox="0 0 23 12" fill="none" xmlns="http://www.w3.org/2000/svg">
<rect width="23" height="12" rx="3" fill="#00abe4"/>
<path d="M8.58643 7.51025H6.10791L5.58936 9H4.43359L6.85059 2.60156H7.84814L10.2695 9H9.10938L8.58643 7.51025ZM6.41992 6.61377H8.27441L7.34717 3.95947L6.41992 6.61377ZM12.1108 6.62256V9H10.999V2.60156H13.4468C14.1616 2.60156 14.7285 2.7876 15.1475 3.15967C15.5693 3.53174 15.7803 4.02393 15.7803 4.63623C15.7803 5.26318 15.5737 5.75098 15.1606 6.09961C14.7505 6.44824 14.1748 6.62256 13.4336 6.62256H12.1108ZM12.1108 5.73047H13.4468C13.8423 5.73047 14.144 5.63818 14.3521 5.45361C14.5601 5.26611 14.6641 4.99658 14.6641 4.64502C14.6641 4.29932 14.5586 4.02393 14.3477 3.81885C14.1367 3.61084 13.8467 3.50391 13.4775 3.49805H12.1108V5.73047ZM17.9292 9H16.8218V2.60156H17.9292V9Z" fill="white"/>
</svg>
