<svg width="23" height="12" viewBox="0 0 23 12" fill="none" xmlns="http://www.w3.org/2000/svg">
<rect width="23" height="12" rx="3" fill="#5A67D8"/>
<path d="M10.3882 6.91699C10.3237 7.59961 10.0718 8.13281 9.63232 8.5166C9.19287 8.89746 8.6084 9.08789 7.87891 9.08789C7.36914 9.08789 6.91943 8.96777 6.52979 8.72754C6.14307 8.48438 5.84424 8.14014 5.6333 7.69482C5.42236 7.24951 5.3125 6.73242 5.30371 6.14355V5.5459C5.30371 4.94238 5.41064 4.41064 5.62451 3.95068C5.83838 3.49072 6.14453 3.13623 6.54297 2.88721C6.94434 2.63818 7.40723 2.51367 7.93164 2.51367C8.6377 2.51367 9.20605 2.70557 9.63672 3.08936C10.0674 3.47314 10.3179 4.01514 10.3882 4.71533H9.28076C9.22803 4.25537 9.09326 3.92432 8.87646 3.72217C8.6626 3.51709 8.34766 3.41455 7.93164 3.41455C7.44824 3.41455 7.07617 3.5918 6.81543 3.94629C6.55762 4.29785 6.42578 4.81494 6.41992 5.49756V6.06445C6.41992 6.75586 6.54297 7.2832 6.78906 7.64648C7.03809 8.00977 7.40137 8.19141 7.87891 8.19141C8.31543 8.19141 8.64355 8.09326 8.86328 7.89697C9.08301 7.70068 9.22217 7.37402 9.28076 6.91699H10.3882ZM12.4976 8.1123H15.4023V9H11.3857V2.60156H12.4976V8.1123ZM17.4282 9H16.3208V2.60156H17.4282V9Z" fill="white"/>
</svg>
