<?xml version="1.0" encoding="UTF-8"?>

<svg width="19" height="11" viewBox="0 0 19 11" fill="none" xmlns="http://www.w3.org/2000/svg">
<rect x="0.846161" width="18" height="11" rx="3" fill="#5A67D8"/>
<path d="M7.41016 6.67578H5.20703L4.74609 8H3.71875L5.86719 2.3125H6.75391L8.90625 8H7.875L7.41016 6.67578ZM5.48438 5.87891H7.13281L6.30859 3.51953L5.48438 5.87891ZM10.543 5.88672V8H9.55469V2.3125H11.7305C12.3659 2.3125 12.8698 2.47786 13.2422 2.80859C13.6172 3.13932 13.8047 3.57682 13.8047 4.12109C13.8047 4.67839 13.6211 5.11198 13.2539 5.42188C12.8893 5.73177 12.3776 5.88672 11.7188 5.88672H10.543ZM10.543 5.09375H11.7305C12.082 5.09375 12.3503 5.01172 12.5352 4.84766C12.7201 4.68099 12.8125 4.44141 12.8125 4.12891C12.8125 3.82161 12.7188 3.57682 12.5312 3.39453C12.3438 3.20964 12.0859 3.11458 11.7578 3.10938H10.543V5.09375ZM15.7148 8H14.7305V2.3125H15.7148V8Z" fill="white"/>
</svg>
