<?xml version="1.0" encoding="UTF-8"?>

<svg width="19" height="11" viewBox="0 0 19 11" fill="none" xmlns="http://www.w3.org/2000/svg">
<rect x="0.846161" width="18" height="11" rx="3" fill="#5A67D8"/>
<path d="M9.01172 6.14844C8.95443 6.75521 8.73047 7.22917 8.33984 7.57031C7.94922 7.90885 7.42969 8.07812 6.78125 8.07812C6.32812 8.07812 5.92839 7.97135 5.58203 7.75781C5.23828 7.54167 4.97266 7.23568 4.78516 6.83984C4.59766 6.44401 4.5 5.98438 4.49219 5.46094V4.92969C4.49219 4.39323 4.58724 3.92057 4.77734 3.51172C4.96745 3.10286 5.23958 2.78776 5.59375 2.56641C5.95052 2.34505 6.36198 2.23438 6.82812 2.23438C7.45573 2.23438 7.96094 2.40495 8.34375 2.74609C8.72656 3.08724 8.94922 3.56901 9.01172 4.19141H8.02734C7.98047 3.78255 7.86068 3.48828 7.66797 3.30859C7.47786 3.1263 7.19792 3.03516 6.82812 3.03516C6.39844 3.03516 6.06771 3.19271 5.83594 3.50781C5.60677 3.82031 5.48958 4.27995 5.48438 4.88672V5.39062C5.48438 6.00521 5.59375 6.47396 5.8125 6.79688C6.03385 7.11979 6.35677 7.28125 6.78125 7.28125C7.16927 7.28125 7.46094 7.19401 7.65625 7.01953C7.85156 6.84505 7.97526 6.55469 8.02734 6.14844H9.01172ZM10.8867 7.21094H13.4688V8H9.89844V2.3125H10.8867V7.21094ZM15.2695 8H14.2852V2.3125H15.2695V8Z" fill="white"/>
</svg>