<svg xmlns="http://www.w3.org/2000/svg" xmlns:xlink="http://www.w3.org/1999/xlink" height="300px" width="300px" fill="#000000" viewBox="0 0 24 24" version="1.1" x="0px" y="0px"><title>Bold/Search</title><desc>Created with Sketch.</desc><g stroke="none" stroke-width="1" fill="none" fill-rule="evenodd"><g fill-rule="nonzero"><rect x="0" y="0" width="24" height="24"/><path d="M18.0318994,16.6176858 L22.0710678,20.6568542 L20.6568542,22.0710678 L16.6176858,18.0318994 C15.078015,19.2635271 13.1250137,20 11,20 C6.02943725,20 2,15.9705627 2,11 C2,6.02943725 6.02943725,2 11,2 C15.9705627,2 20,6.02943725 20,11 C20,13.1250137 19.2635271,15.078015 18.0318994,16.6176858 Z M11,18 C14.8659932,18 18,14.8659932 18,11 C18,7.13400675 14.8659932,4 11,4 C7.13400675,4 4,7.13400675 4,11 C4,14.8659932 7.13400675,18 11,18 Z" fill="#A0AEC0"/></g></g></svg>